<?xml version="1.0" standalone="no"?>
<!DOCTYPE svg PUBLIC "-//W3C//DTD SVG 20010904//EN"
 "http://www.w3.org/TR/2001/REC-SVG-20010904/DTD/svg10.dtd">
<svg version="1.0" xmlns="http://www.w3.org/2000/svg"
 width="700.000000pt" height="700.000000pt" viewBox="0 0 700.000000 700.000000"
 preserveAspectRatio="xMidYMid meet">
<metadata>
Created by potrace 1.11, written by Peter Selinger 2001-2013
</metadata>
<g transform="translate(0.000000,700.000000) scale(0.100000,-0.100000)"
fill="#000000" stroke="none">
<path d="M0 3500 l0 -3500 3500 0 3500 0 0 3500 0 3500 -3500 0 -3500 0 0
-3500z m5778 3442 c88 -34 165 -94 328 -257 267 -265 344 -391 344 -566 0
-174 -134 -250 -361 -205 -46 10 -102 28 -124 41 -50 29 -138 112 -164 156
l-21 34 -1 -65 c-1 -36 -1 -68 -1 -71 1 -3 4 -60 7 -125 8 -147 18 -185 56
-228 41 -47 98 -71 225 -96 196 -37 280 -69 342 -131 50 -49 65 -86 66 -155 0
-74 -34 -151 -114 -256 -46 -61 -141 -150 -171 -160 -8 -3 -1 -20 19 -46 61
-85 67 -194 15 -303 -88 -188 -245 -259 -400 -180 -38 19 -84 33 -120 36 -32
3 -75 8 -95 10 l-38 5 13 -27 c6 -16 24 -38 38 -50 43 -37 86 -155 110 -302
12 -79 3 -145 -26 -179 l-22 -25 24 -116 c42 -206 93 -531 105 -672 9 -101 9
-187 1 -330 -17 -294 0 -527 57 -804 54 -265 191 -715 261 -862 36 -76 44 -85
91 -109 103 -52 190 -146 247 -264 14 -30 32 -59 39 -63 28 -18 92 -110 92
-133 0 -14 -12 -37 -26 -51 -21 -21 -32 -25 -64 -20 -32 4 -42 1 -62 -20 -60
-64 -144 -85 -345 -84 -441 2 -667 111 -805 386 -87 173 -124 367 -138 730
-11 261 -19 340 -42 392 l-13 32 -72 -59 c-86 -70 -205 -131 -302 -156 -43
-11 -71 -24 -71 -32 0 -28 61 -253 95 -352 70 -201 124 -287 231 -365 138
-102 209 -192 245 -310 19 -59 29 -77 57 -96 37 -25 72 -74 72 -100 0 -9 -9
-28 -21 -43 -16 -20 -29 -26 -59 -26 -21 0 -42 5 -45 10 -10 16 -20 12 -42
-19 -20 -27 -21 -31 -7 -71 14 -41 14 -45 -4 -69 -39 -52 -111 -51 -132 3 l-9
24 -55 -17 c-50 -14 -56 -19 -56 -43 0 -39 -32 -68 -74 -68 -28 0 -41 8 -69
40 -31 37 -38 40 -83 40 -232 1 -446 166 -574 444 -94 204 -137 401 -191 886
-17 152 -47 262 -129 465 -115 287 -133 370 -110 531 22 156 113 399 159 424
30 15 56 12 85 -11 32 -25 35 -73 6 -128 -61 -120 -100 -270 -100 -384 0 -101
15 -154 111 -392 89 -222 115 -321 139 -545 25 -221 43 -342 71 -470 78 -359
221 -578 420 -642 l71 -22 16 21 c25 33 62 43 98 28 17 -7 34 -20 37 -29 4 -9
16 -16 27 -16 15 0 20 7 20 26 0 36 15 60 48 73 24 10 37 9 82 -9 53 -21 53
-21 73 -1 20 19 20 20 -17 35 -68 28 -73 105 -9 137 l33 16 -28 39 c-41 56
-87 100 -162 155 -36 26 -81 69 -102 96 -198 262 -341 844 -355 1449 -6 256 2
381 32 495 23 85 73 112 130 67 26 -20 27 -25 21 -77 -3 -31 -10 -78 -16 -106
-17 -91 -23 -345 -11 -505 14 -187 41 -402 51 -414 5 -4 34 0 66 9 306 89 536
405 658 905 19 80 43 196 52 258 15 98 20 115 42 132 33 27 68 25 97 -5 29
-29 31 -54 10 -180 -54 -336 -170 -663 -305 -862 l-42 -62 21 -29 c54 -77 70
-161 81 -442 12 -292 31 -455 65 -576 49 -171 119 -278 230 -352 118 -79 246
-106 495 -107 158 0 178 2 209 20 54 31 53 48 -2 40 -41 -6 -49 -4 -71 18 -14
15 -26 37 -26 49 0 31 26 67 57 79 l24 9 -37 46 c-22 27 -61 57 -94 74 -117
59 -171 149 -264 435 -129 400 -191 658 -228 940 -12 98 -16 339 -10 681 1 95
-2 214 -8 265 -18 156 -110 673 -121 683 -2 2 -80 9 -174 15 -480 33 -889 155
-1195 355 l-100 66 -31 -63 c-43 -84 -138 -231 -228 -352 -171 -228 -349 -411
-731 -750 -380 -337 -532 -493 -654 -673 -155 -229 -234 -467 -255 -775 -8
-125 -18 -150 -95 -254 -79 -107 -206 -191 -354 -234 -130 -37 -345 -41 -522
-10 -156 28 -368 155 -484 291 -52 60 -111 159 -122 203 -13 54 -22 12 -12
-57 24 -176 123 -315 333 -468 227 -166 388 -220 655 -221 149 -1 262 21 430
83 107 40 177 52 225 39 24 -7 66 -37 117 -85 43 -41 105 -88 137 -104 66 -33
197 -70 249 -70 75 0 138 53 194 163 28 55 32 75 39 182 14 231 52 325 129
325 57 0 80 -34 80 -115 0 -68 -23 -212 -45 -289 -37 -124 37 -375 143 -490
52 -55 187 -126 285 -150 24 -6 27 -4 27 19 0 37 17 64 47 76 38 14 72 -3 113
-56 19 -24 43 -44 52 -45 14 0 13 4 -7 25 -26 25 -32 63 -15 95 13 25 67 42
91 29 10 -5 19 -7 19 -4 0 16 -43 85 -77 125 -93 107 -155 231 -189 378 -25
111 -30 369 -9 512 14 99 15 133 5 186 -16 93 -45 164 -86 213 -62 72 -120 89
-222 66 -133 -31 -300 -141 -499 -329 -88 -83 -119 -106 -140 -106 -35 1 -59
19 -72 53 -15 40 -2 63 81 143 424 409 754 510 955 290 59 -64 98 -142 125
-249 22 -88 22 -188 -2 -372 -24 -187 13 -431 85 -561 19 -36 60 -94 91 -131
83 -97 109 -158 111 -263 1 -47 7 -99 14 -117 18 -44 3 -83 -39 -105 -26 -13
-40 -14 -63 -6 -23 8 -39 6 -74 -9 -25 -10 -45 -22 -45 -26 0 -4 -11 -19 -25
-32 -32 -33 -78 -33 -111 0 -14 14 -35 25 -48 25 -52 0 -221 51 -313 96 -80
38 -111 60 -168 118 -70 70 -128 166 -155 251 -19 59 -18 59 -62 19 -65 -58
-139 -87 -223 -87 -158 2 -346 79 -467 193 -42 38 -81 70 -88 70 -6 0 -78 -22
-158 -49 -212 -71 -308 -86 -501 -77 -279 12 -435 67 -676 240 -176 126 -272
230 -343 371 -51 104 -66 169 -67 290 0 105 1 113 31 164 79 139 198 111 264
-62 49 -128 78 -172 160 -251 168 -161 372 -229 634 -213 184 12 315 65 409
167 77 83 89 114 99 255 23 344 143 648 365 925 100 125 317 339 578 570 517
458 744 716 933 1062 l42 77 -17 35 c-16 35 -16 40 21 193 43 181 61 237 88
276 26 36 73 60 110 55 24 -4 30 0 36 21 9 33 9 898 -1 907 -4 4 -17 -6 -29
-22 -104 -136 -259 -185 -418 -134 -125 40 -222 129 -250 228 -15 54 -12 161
6 221 36 121 178 407 280 562 108 163 224 231 356 207 104 -19 153 -62 342
-300 l109 -137 37 19 c62 32 160 66 245 86 110 25 294 24 388 -4 l68 -20 9 22
c101 263 138 341 180 390 66 74 183 98 288 58z m-2327 -3781 c56 -57 44 -76
-146 -228 -291 -233 -522 -464 -638 -636 -69 -101 -75 -107 -117 -107 -46 0
-74 28 -74 74 0 86 255 384 551 643 93 82 308 254 338 271 32 18 55 14 86 -17z
m-996 -1076 c15 -14 25 -36 25 -53 0 -38 -95 -271 -117 -288 -46 -35 -123 1
-123 58 0 39 89 258 117 285 29 30 68 29 98 -2z"/>
<path d="M5610 6783 c-23 -21 -51 -81 -118 -248 -103 -256 -108 -263 -189
-231 -184 71 -343 74 -534 7 -79 -27 -114 -47 -100 -55 14 -9 15 -61 1 -86
-14 -27 -62 -41 -91 -26 -13 6 -109 117 -212 246 -192 238 -245 290 -299 290
-66 0 -136 -67 -225 -213 -74 -124 -181 -342 -213 -437 -40 -119 -8 -205 95
-255 168 -82 307 12 376 253 11 40 29 82 39 92 46 46 109 30 136 -35 24 -59
44 -233 52 -465 9 -260 0 -706 -18 -830 l-12 -85 44 -39 c199 -180 585 -312
973 -332 107 -6 125 -5 125 8 0 8 9 23 20 33 19 18 17 19 -93 55 -169 55 -320
138 -411 223 -42 40 -46 72 -15 111 33 42 71 35 159 -28 125 -91 305 -169 438
-191 l42 -7 -59 84 c-33 45 -75 108 -93 139 -32 54 -36 58 -103 79 -121 38
-278 111 -308 142 -23 24 -27 36 -22 57 17 68 57 80 145 41 393 -172 705 -213
913 -120 44 20 47 23 34 38 -9 10 -20 30 -26 46 -9 22 -15 26 -29 20 -32 -15
-96 -9 -125 11 -15 11 -39 44 -53 73 -21 42 -26 62 -22 101 5 51 36 121 70
157 l19 22 -69 32 c-123 56 -193 149 -210 280 -5 34 -15 66 -23 71 -24 15 -93
10 -132 -11 -49 -27 -88 -26 -115 3 -69 73 32 166 179 167 l66 0 7 131 c17
326 45 419 126 419 45 0 75 -38 95 -120 36 -146 115 -269 201 -310 63 -31 212
-41 237 -16 37 37 11 139 -62 251 -27 41 -119 143 -221 246 -143 143 -187 182
-239 207 -79 39 -111 40 -151 5z m164 -77 c27 -8 66 -26 87 -40 34 -23 39 -31
39 -66 0 -27 -7 -45 -22 -60 -28 -25 -58 -25 -109 1 -49 24 -80 22 -95 -8 -32
-65 -87 -82 -131 -41 -54 51 0 170 97 212 44 19 75 20 134 2z m-1640 -100 c71
-30 97 -103 51 -146 -20 -18 -32 -22 -64 -17 -31 4 -44 1 -57 -14 -37 -41
-124 -3 -124 54 0 52 85 137 137 137 13 0 38 -6 57 -14z m1856 -96 c17 -9 187
-203 248 -284 28 -36 28 -66 1 -100 -22 -29 -71 -35 -100 -13 -29 22 -248 287
-254 308 -9 28 11 74 38 87 29 14 44 14 67 2z m-1670 -112 c47 -56 160 -248
160 -274 0 -65 -84 -99 -127 -51 -40 42 -163 251 -163 276 0 62 89 96 130 49z
m-353 -40 c13 -12 23 -33 23 -48 0 -29 -145 -386 -167 -412 -42 -47 -132 -16
-133 47 0 28 151 392 173 416 24 26 75 25 104 -3z m1123 -560 c44 -13 60 -26
71 -57 13 -32 -4 -74 -37 -92 -20 -10 -34 -11 -70 -1 -94 25 -176 9 -258 -50
-49 -35 -89 -36 -123 -2 -50 50 -11 113 109 175 93 47 210 57 308 27z"/>
<path d="M6052 5333 c-41 -39 -62 -66 -62 -81 l0 -23 26 20 c72 57 184 -10
184 -109 0 -47 32 -39 69 16 38 57 55 108 47 139 -7 27 -102 78 -167 90 -34 6
-40 3 -97 -52z"/>
<path d="M5971 4771 c-10 -6 -10 -10 -1 -16 22 -13 60 -109 60 -151 0 -49 -26
-77 -70 -77 -39 0 -58 17 -87 83 -43 99 -103 144 -201 154 l-63 6 17 -29 c9
-16 49 -68 88 -117 83 -103 178 -174 231 -174 70 0 155 107 155 195 0 92 -72
162 -129 126z"/>
<path d="M4121 4613 c-6 -21 -17 -69 -25 -108 -8 -38 -18 -78 -22 -88 -8 -22
24 -52 146 -135 232 -157 550 -271 901 -322 158 -23 440 -41 453 -29 11 10 -6
118 -30 190 l-15 46 -152 7 c-512 22 -914 163 -1174 409 l-72 68 -10 -38z
m170 -169 c136 -82 379 -180 624 -249 75 -22 140 -46 153 -58 45 -41 13 -127
-48 -127 -28 0 -241 60 -365 103 -199 69 -460 194 -497 238 -26 30 -23 75 7
104 33 34 57 31 126 -11z m1120 -333 c28 -35 25 -85 -7 -110 -39 -31 -133 -30
-170 2 -45 39 -34 104 21 128 11 5 47 7 79 6 47 -3 63 -8 77 -26z"/>
</g>
</svg>
