<?xml version="1.0" encoding="UTF-8"?>
<svg width="87px" height="96px" viewBox="0 0 87 96" version="1.1" xmlns="http://www.w3.org/2000/svg" xmlns:xlink="http://www.w3.org/1999/xlink">
    <g stroke="none" stroke-width="1" fill="none" fill-rule="evenodd">
        <g transform="translate(-397.000000, -1393.000000)" fill-rule="nonzero" fill="#EED65B">
            <g id="Group" transform="translate(397.000000, 1393.000000)">
                <path d="M74.7792969,88.6308594 L2.3856812,88.6308594 C1.5575867,88.6308594 0.8856812,87.9591065 0.8856812,87.1308594 L0.8856812,32.8027344 C0.8856812,31.9746094 1.5575867,31.3027344 2.3856812,31.3027344 L74.7792969,31.3027344 C75.6073914,31.3027344 76.2792969,31.9746094 76.2792969,32.8027344 L76.2792969,87.1308594 C76.2792969,87.9591064 75.6073914,88.6308594 74.7792969,88.6308594 Z M3.8856812,85.6308594 L73.2792969,85.6308594 L73.2792969,34.3027344 L3.8856812,34.3027344 L3.8856812,85.6308594 Z" id="Shape"></path>
                <path d="M85.2675781,95.1103516 L85.0673828,95.1103516 C84.2392578,95.1103516 83.5673828,94.4384766 83.5673828,93.6103516 C83.5673828,92.7822266 84.2392578,92.1103516 85.0673828,92.1103516 L85.2675781,92.1103516 C86.0957031,92.1103516 86.7675781,92.7822266 86.7675781,93.6103516 C86.7675781,94.4384766 86.0957031,95.1103516 85.2675781,95.1103516 Z" id="Shape"></path>
                <path d="M80.8515625,95.1103516 L79.3563843,95.1103516 C78.5282898,95.1103516 77.8563843,94.4384766 77.8563843,93.6103516 C77.8563843,92.7822266 78.5282898,92.1103516 79.3563843,92.1103516 L80.8515625,92.1103516 C81.6796875,92.1103516 82.3515625,92.7822266 82.3515625,93.6103516 C82.3515625,94.4384766 81.6796875,95.1103516 80.8515625,95.1103516 Z" id="Shape"></path>
                <path d="M74.0820007,95.1103516 L6.0400085,95.1103516 C5.2108764,95.1103516 4.5400085,94.4384766 4.5400085,93.6103516 C4.5400085,92.7822266 5.2108764,92.1103516 6.0400085,92.1103516 L74.0820007,92.1103516 C74.9101867,92.1103516 75.5820007,92.7822266 75.5820007,93.6103516 C75.5820007,94.4384766 74.9101868,95.1103516 74.0820007,95.1103516 Z" id="Shape"></path>
                <path d="M74.7792969,28.1904297 C73.9512024,28.1904297 73.2792969,27.5185547 73.2792969,26.6904297 L73.2792969,13.1103516 L61.2382813,13.1103516 C60.4091797,13.1103516 59.7382813,12.4384766 59.7382813,11.6103516 C59.7382813,10.7822266 60.4091797,10.1103516 61.2382813,10.1103516 L74.7792969,10.1103516 C75.6073914,10.1103516 76.2792969,10.7822266 76.2792969,11.6103516 L76.2792969,26.6904297 C76.2792969,27.5185547 75.6073914,28.1904297 74.7792969,28.1904297 Z" id="Shape"></path>
                <path d="M50.0351868,13.1103516 L20.7685852,13.1103516 C19.9403992,13.1103516 19.2685852,12.4384766 19.2685852,11.6103516 C19.2685852,10.7822266 19.9403992,10.1103516 20.7685852,10.1103516 L50.0351868,10.1103516 C50.8632813,10.1103516 51.5351868,10.7822266 51.5351868,11.6103516 C51.5351868,12.4384766 50.8632812,13.1103516 50.0351868,13.1103516 Z" id="Shape"></path>
                <path d="M2.4608765,27.8759766 C1.6317749,27.8759766 0.9608765,27.2041016 0.9608765,26.3759766 L0.9608765,11.6103516 C0.9608765,10.7822266 1.6317749,10.1103516 2.4608765,10.1103516 L9.1962891,10.1103516 C10.0253907,10.1103516 10.6962891,10.7822266 10.6962891,11.6103516 C10.6962891,12.4384766 10.0253907,13.1103516 9.1962891,13.1103516 L3.9608765,13.1103516 L3.9608765,26.3759766 C3.9608765,27.2041016 3.2900085,27.8759766 2.4608765,27.8759766 Z" id="Shape"></path>
                <path d="M17.1913757,28.288208 C13.5762024,28.288208 10.633789,25.3466797 10.633789,21.7304687 C10.633789,20.9023437 11.3046874,20.2304687 12.133789,20.2304687 C12.9628906,20.2304687 13.633789,20.9023437 13.633789,21.7304687 C13.633789,23.6925048 15.2304992,25.288208 17.1913757,25.288208 C19.1542968,25.288208 20.751007,23.6925049 20.751007,21.7304687 C20.751007,20.2968749 19.8974914,19.008789 18.5770873,18.4511718 C17.8144835,18.1289062 17.4570006,17.2480468 17.7792968,16.4853515 C18.102478,15.7226562 18.9843749,15.3673095 19.7450866,15.6874999 C22.1786804,16.7158202 23.751007,19.0878905 23.751007,21.7304687 C23.7510071,25.3466797 20.8085938,28.288208 17.1913757,28.288208 Z" id="Shape"></path>
                <path d="M16.8661804,22.3447266 C16.4354858,22.3447266 16.008789,22.1611328 15.7118835,21.803711 C13.851593,19.5675049 12.7851867,16.2480469 12.7851867,12.6972657 C12.7851867,6.0683595 16.3788757,0.8750001 20.9667968,0.8750001 C23.5888976,0.8750001 25.978485,2.5841065 27.5224914,5.5644532 C27.9032897,6.3009034 27.6161804,7.2060548 26.8808898,7.5869141 C26.1435851,7.96875 25.2392882,7.6798096 24.8583983,6.9453125 C23.8476866,4.9941406 22.4296874,3.875 20.9667967,3.875 C18.1582029,3.875 15.7851866,7.9150391 15.7851866,12.6972656 C15.7851866,15.5166015 16.6190794,18.2041015 18.018585,19.8857422 C18.5478819,20.522461 18.4608763,21.4677734 17.824188,21.9980469 C17.5438843,22.2314453 17.2041016,22.3447266 16.8661804,22.3447266 Z" id="Shape"></path>
                <path d="M57.8661804,22.3447266 C57.4354858,22.3447266 57.008789,22.1601563 56.7118835,21.803711 C54.851593,19.5664063 53.7851867,16.2480469 53.7851867,12.6972657 C53.7851867,6.0683595 57.3788757,0.8750001 61.9677734,0.8750001 C64.5888977,0.8750001 66.9784851,2.5841065 68.5224914,5.5644532 C68.9032897,6.3009034 68.6161804,7.2060548 67.8808898,7.5869141 C67.1445006,7.96875 66.2392882,7.6798096 65.8583983,6.9453125 C64.8476866,4.9941406 63.4296874,3.875 61.9677733,3.875 C59.1581725,3.875 56.7851866,7.9150391 56.7851866,12.6972656 C56.7851866,15.5166015 57.6190794,18.203125 59.018585,19.8857422 C59.5478819,20.522461 59.4608763,21.46875 58.824188,21.9980469 C58.5438843,22.2314453 58.2041016,22.3447266 57.8661804,22.3447266 Z" id="Shape"></path>
                <path d="M58.7479858,28.288208 C55.1308899,28.288208 52.1894836,25.3466797 52.1894836,21.7304687 C52.1894836,20.9023437 52.860382,20.2304687 53.6894836,20.2304687 C54.5185852,20.2304687 55.1894836,20.9023437 55.1894836,21.7304687 C55.1894836,23.6925048 56.7851867,25.288208 58.7479858,25.288208 C60.7099914,25.288208 62.3065796,23.6925049 62.3065796,21.7304687 C62.3065796,20.2968749 61.4530945,19.008789 60.132782,18.4511718 C59.3690796,18.1289062 59.0126953,17.2480468 59.3349915,16.4853515 C59.6571961,15.7226562 60.5390931,15.3673095 61.3007813,15.6874999 C63.7343751,16.7158202 65.3065796,19.0878905 65.3065796,21.7304687 C65.3065796,25.3466797 62.3642883,28.288208 58.7479858,28.288208 Z" id="Shape"></path>
                <path d="M29.1708984,55.2275391 C28.7870788,55.2275391 28.4032898,55.0810547 28.110382,54.788208 C27.5243835,54.2021484 27.5243835,53.2529297 28.110382,52.6669922 L37.4560851,43.3222656 L20.8173827,43.3222656 C19.9892882,43.3222656 19.3173827,42.6503906 19.3173827,41.8222656 C19.3173827,40.9941406 19.9892882,40.3222656 20.8173827,40.3222656 L41.0770873,40.3222656 C41.6835936,40.3222656 42.2313842,40.6875 42.4628905,41.2480468 C42.6952819,41.8085937 42.5663756,42.4541015 42.1376952,42.8828124 L30.2313842,54.7882079 C29.9384766,55.0810547 29.5546875,55.2275391 29.1708984,55.2275391 Z" id="Shape"></path>
                <path d="M29.7353821,79.2109375 C25.0185852,79.2109375 20.7030945,76.8222656 18.1933899,72.8212891 C17.7528992,72.1201172 17.9647827,71.194336 18.6669922,70.7539063 C19.3690796,70.3144532 20.2948914,70.5253907 20.7353821,71.2275391 C22.6933899,74.3476563 26.0575867,76.2109375 29.7353821,76.2109375 C35.5878906,76.2109375 40.3495789,71.4482422 40.3495789,65.5947266 C40.3495789,59.741211 35.5878907,54.9785157 29.7353821,54.9785157 C28.9062805,54.9785157 28.2353821,54.3066407 28.2353821,53.4785157 C28.2353821,52.6503907 28.9062805,51.9785157 29.7353821,51.9785157 C37.2421875,51.9785157 43.3495789,58.0869141 43.3495789,65.5947266 C43.3495789,73.1025391 37.2421875,79.2109375 29.7353821,79.2109375 Z" id="Shape"></path>
                <path d="M56.5038757,78.8134766 C55.6757812,78.8134766 55.0038757,78.1416016 55.0038757,77.3134766 L55.0038757,43.3222657 L48.6474914,43.3222657 C47.8183898,43.3222657 47.1474914,42.6503907 47.1474914,41.8222657 C47.1474914,40.9941407 47.8183898,40.3222657 48.6474914,40.3222657 L56.5038757,40.3222657 C57.3330078,40.3222657 58.0038757,40.9941407 58.0038757,41.8222657 L58.0038757,77.3134766 C58.0038757,78.1416016 57.3330078,78.8134766 56.5038757,78.8134766 Z" id="Shape"></path>
                <path d="M85.0517578,28.288208 L79.2606811,28.288208 C78.4325866,28.288208 77.7606811,27.6162109 77.7606811,26.788208 C77.7606811,25.9599609 78.4325866,25.288208 79.2606811,25.288208 L83.5517578,25.288208 L83.5517578,13.1103516 L76.1298828,13.1103516 C75.3017883,13.1103516 74.6298828,12.4384766 74.6298828,11.6103516 C74.6298828,10.7822266 75.3017883,10.1103516 76.1298828,10.1103516 L85.0517578,10.1103516 C85.8798828,10.1103516 86.5517578,10.7822266 86.5517578,11.6103516 L86.5517578,26.788208 C86.5517578,27.6162109 85.8798828,28.288208 85.0517578,28.288208 Z" id="Shape"></path>
                <path d="M85.0517578,88.6308594 L79.3563843,88.6308594 C78.5282898,88.6308594 77.8563843,87.9591065 77.8563843,87.1308594 C77.8563843,86.3027344 78.5282898,85.6308594 79.3563843,85.6308594 L83.5517578,85.6308594 L83.5517578,33.8800049 C83.5517578,33.0517578 84.2235718,32.3800049 85.0517578,32.3800049 C85.8798828,32.3800049 86.5517578,33.0517578 86.5517578,33.8800049 L86.5517578,87.1308594 C86.5517578,87.9591064 85.8798828,88.6308594 85.0517578,88.6308594 Z" id="Shape"></path>
                <path d="M80.0332031,83.8867188 C79.2050781,83.8867188 78.5331726,83.2148438 78.5331726,82.3867188 L78.5331726,76.5820313 C78.5331726,75.7539063 79.2050781,75.0820313 80.0332031,75.0820313 C80.8612671,75.0820313 81.5332031,75.7539063 81.5332031,76.5820313 L81.5332031,82.3867188 C81.5332031,83.2148438 80.8612671,83.8867188 80.0332031,83.8867188 Z" id="Shape"></path>
                <path d="M80.0332031,71.1484375 C79.2050781,71.1484375 78.5331726,70.4765625 78.5331726,69.6484375 L78.5331726,67.2109375 C78.5331726,66.3828125 79.2050781,65.7109375 80.0332031,65.7109375 C80.8612671,65.7109375 81.5332031,66.3828125 81.5332031,67.2109375 L81.5332031,69.6484375 C81.5332031,70.4765625 80.8612671,71.1484375 80.0332031,71.1484375 Z" id="Shape"></path>
                <path d="M80.0332031,63.4259033 C79.2050781,63.4259033 78.5331726,62.7539062 78.5331726,61.9259033 L78.5331726,33.8800049 C78.5331726,33.0517578 79.2050781,32.3800049 80.0332031,32.3800049 C80.8612671,32.3800049 81.5332031,33.0517578 81.5332031,33.8800049 L81.5332031,61.9259033 C81.5332031,62.7539062 80.8612671,63.4259033 80.0332031,63.4259033 Z" id="Shape"></path>
            </g>
        </g>
    </g>
</svg>
