<?xml version="1.0" encoding="UTF-8"?>
<svg width="92px" height="64px" viewBox="0 0 92 64" version="1.1" xmlns="http://www.w3.org/2000/svg" xmlns:xlink="http://www.w3.org/1999/xlink">
    <g stroke="none" stroke-width="1" fill="none" fill-rule="evenodd">
        <g transform="translate(-382.000000, -6.000000)" fill-rule="nonzero" fill="#EED65B">
            <g id="Group" transform="translate(382.000000, 6.000000)">
                <path d="M84.0312805,63.9985504 L8.0224914,63.9985504 C3.851593,63.9985504 0.4570007,60.6049499 0.4570007,56.4341507 L0.4570007,8.5566483 C0.4570007,4.3857499 3.851593,0.9922486 8.0224914,0.9922486 L84.0312805,0.9922486 C88.2020874,0.9922486 91.5956726,4.3857499 91.5956726,8.5566483 L91.5956726,56.4341507 C91.5956726,60.60495 88.2020874,63.9985504 84.0312805,63.9985504 Z M8.0224915,3.9922485 C5.5048829,3.9922485 3.4570008,6.0395507 3.4570008,8.5566482 L3.4570008,56.4341506 C3.4570008,58.9511489 5.5048829,60.9985503 8.0224915,60.9985503 L84.0312806,60.9985503 C86.5478822,60.9985503 88.5956727,58.9511489 88.5956727,56.4341506 L88.5956727,8.5566483 C88.5956727,6.0395508 86.5478822,3.9922486 84.0312806,3.9922486 L8.0224915,3.9922486 L8.0224915,3.9922485 Z" id="Shape"></path>
                <path d="M46.6044922,38.9091492 C41.0185852,38.9091492 36.9667969,35.7700501 36.3788757,35.2885514 L1.0780945,9.7724534 C0.4071961,9.2871476 0.2558899,8.3491517 0.7421875,7.6777497 C1.226593,7.0068513 2.164093,6.8545495 2.8358765,7.3408509 L38.1747742,32.8847504 C38.2128907,32.9126511 38.25,32.9424515 38.2851868,32.9736481 C38.5897827,33.236847 45.9325867,39.441948 54.623993,33.0483475 C78.3700868,15.5810471 89.0010072,6.2749481 89.1054993,6.1831513 C89.7294922,5.6352501 90.6757813,5.6977501 91.2216797,6.3193513 C91.7695007,6.9414483 91.7080078,7.8891488 91.0858765,8.4360505 C90.9804993,8.5288468 80.2724915,17.9062501 56.4022827,35.4653474 C52.8993835,38.0415497 49.5400085,38.9091492 46.6044922,38.9091492 Z" id="Shape"></path>
                <path d="M4.921875,60.2519531 C4.469696,60.2519531 4.0224915,60.0483474 3.727478,59.6606521 C3.2255859,59.0014495 3.3534851,58.0605468 4.0116882,57.5586471 L15.7323913,48.6347503 C16.3905944,48.13385 17.3320007,48.2597503 17.8349914,48.9194488 C18.3358764,49.5786514 18.2090148,50.5195465 17.5497741,51.021553 L5.8300781,59.9453506 C5.5575867,60.1518478 5.2392883,60.2519531 4.921875,60.2519531 Z" id="Shape"></path>
                <path d="M21.1815796,47.79245 C20.7304993,47.79245 20.2832031,47.588852 19.9882813,47.201149 C19.4853821,46.5420532 19.6132813,45.6010513 20.2724915,45.0991516 L24.413086,41.9458465 C25.0722962,41.444847 26.0126954,41.57135 26.5145875,42.2304534 C27.0175782,42.8896483 26.8895875,43.8305511 26.2304994,44.33255 L22.0897828,47.4858474 C21.8183899,47.6924515 21.4989929,47.79245 21.1815796,47.79245 Z" id="Shape"></path>
                <path d="M29.0770874,41.7802505 C28.6210937,41.7802505 28.171875,41.5737533 27.8770142,41.1816482 C27.3788758,40.5195465 27.5116883,39.5791473 28.1737976,39.081047 L36.3945007,32.9013519 C37.0565796,32.4048538 37.9971008,32.5366516 38.4950866,33.1992492 C38.9921874,33.8613509 38.8593749,34.8017501 38.1972961,35.2998504 L29.977478,41.4795532 C29.7070007,41.6821518 29.3905945,41.7802505 29.0770874,41.7802505 Z" id="Shape"></path>
                <path d="M87.8788757,60.2519531 C87.5614929,60.2519531 87.2421875,60.1518478 86.9706726,59.9453506 L55.4726868,35.9614486 C54.8144837,35.4594497 54.686493,34.518547 55.1884766,33.859352 C55.6894837,33.1997527 56.6308899,33.0722503 57.2900086,33.5747527 L88.7890931,57.558647 C89.4472962,58.0605467 89.5751954,59.0014494 89.0731812,59.660652 C88.7782898,60.0483475 88.3310852,60.2519531 87.8788757,60.2519531 Z" id="Shape"></path>
                <path d="M57.7626953,58.5698471 C57.4276733,58.5698471 57.0927734,58.5122528 56.7685852,58.396553 C56.0253906,58.1318512 55.4315796,57.59375 55.0937805,56.8813476 L51.820282,49.9677505 C51.4823914,49.2558517 51.4433899,48.4546508 51.7090149,47.7119522 C51.9745789,46.9692535 52.5137024,46.3750534 53.2245789,46.038147 L62.8954773,41.4594498 C63.6445007,41.1059494 64.539093,41.4258499 64.8935852,42.173851 C65.2479858,42.922348 64.9276733,43.8169479 64.1786804,44.1714477 L54.508789,48.7495498 L57.8046874,55.5971526 L67.2187804,51.0835494 C67.9657897,50.7295531 68.8612975,51.0473479 69.2157897,51.796852 C69.571289,52.5454482 69.2520141,53.4399489 68.5028991,53.7944487 L59.0224914,58.284149 C58.6229858,58.4741516 58.1933899,58.5698471 57.7626953,58.5698471 Z" id="Shape"></path>
                <path d="M74.1532898,50.9604492 C73.5917969,50.9604492 73.0526733,50.6430511 72.796875,50.1020508 C72.4413757,49.3530503 72.7616882,48.4590531 73.5106812,48.1040497 L82.1151734,44.0298538 L78.81839,37.1841507 L75.7831727,38.6758499 L71.1640931,40.8633499 C70.4150086,41.2168503 69.5204774,40.8984527 69.1659852,40.1499481 C68.8104859,39.4008484 69.13089,38.5068512 69.8788758,38.1523514 L77.600586,34.4966507 C78.3104859,34.1596527 79.1103821,34.1186523 79.8544922,34.3833466 C80.5976868,34.6484528 81.1913757,35.1870499 81.5292969,35.9004517 L84.8036804,42.8125534 C85.1416015,43.5249481 85.1806946,44.326149 84.9150085,45.0683517 C84.6493835,45.8100509 84.1112976,46.4043502 83.3993835,46.7417526 L74.7938842,50.8159485 C74.5868835,50.9140472 74.3690796,50.9604492 74.1532898,50.9604492 Z" id="Shape"></path>
                <path d="M59.1835938,52.2124481 C58.8378907,52.2124481 58.4950867,52.0932464 58.2196961,51.8623504 L56.9315796,50.7832488 C56.296875,50.2514495 56.2128906,49.3051528 56.7440796,48.6704482 C57.2763977,48.0356521 58.2226868,47.9507522 58.8573914,48.4834517 L59.4101868,48.9453505 L64.625,46.4760512 C65.3729858,46.1191481 66.2685852,46.4404524 66.6229858,47.189453 C66.9784851,47.9384535 66.6581726,48.8325499 65.9101867,49.1875533 L59.8251952,52.0678481 C59.6200867,52.1650467 59.4013977,52.2124481 59.1835938,52.2124481 Z" id="Shape"></path>
                <path d="M63.4667969,52.7544479 C62.9052735,52.7544479 62.3671875,52.4375534 62.1103821,51.8960495 L60.5830078,48.6704483 C60.2284851,47.9214478 60.5478821,47.0273514 61.296875,46.6728516 C62.0438843,46.3183518 62.9394836,46.6367493 63.2938843,47.3862534 L64.8212891,50.611847 C65.1767884,51.3608475 64.8563843,52.2549516 64.1073914,52.6093522 C63.9003906,52.70755 63.6815796,52.7544479 63.4667969,52.7544479 Z" id="Shape"></path>
                <path d="M68.8085938,47.5605469 C68.2471009,47.5605469 67.7090149,47.2436524 67.4520875,46.702652 C67.0976869,45.9541474 67.4159852,45.0595474 68.1650086,44.7046509 L68.8340149,44.3872528 C69.5830078,44.0317535 70.477478,44.3515472 70.8320007,45.1001511 C71.1875,45.8486481 70.8681945,46.7431488 70.1190796,47.0981522 L69.4501953,47.4155503 C69.2421875,47.513649 69.0233765,47.5605469 68.8085938,47.5605469 Z" id="Shape"></path>
                <path d="M72.0214844,46.0390472 C71.4590149,46.0390472 70.9208985,45.7221527 70.6650086,45.1806488 C70.3096009,44.4316483 70.6288758,43.5376511 71.3778992,43.1831512 L76.6659851,40.678749 C77.4150085,40.3217467 78.3085937,40.6430511 78.664093,41.3921508 C79.0185852,42.1411513 78.6991882,43.0351485 77.9512024,43.3896484 L72.6620789,45.8940506 C72.4550781,45.9926529 72.2362976,46.0390472 72.0214844,46.0390472 Z" id="Shape"></path>
            </g>
        </g>
    </g>
</svg>
