<?xml version="1.0" encoding="UTF-8"?>
<svg width="121px" height="80px" viewBox="0 0 121 80" version="1.1" xmlns="http://www.w3.org/2000/svg" xmlns:xlink="http://www.w3.org/1999/xlink">
    <g stroke="none" stroke-width="1" fill="none" fill-rule="evenodd">
        <g transform="translate(-184.000000, -2983.000000)" fill-rule="nonzero" fill="#EED65B">
            <g id="Group" transform="translate(184.000000, 2983.000000)">
                <path d="M41.1908875,80.0146484 C41.0888978,80.0146484 40.9862977,80.0029296 40.8847962,79.9794922 L1.8134919,70.9794922 C1.1288911,70.8222656 0.6763001,70.1699219 0.768097,69.4726563 L7.768097,16.4580079 C7.8192902,16.0703126 8.0351868,15.7226563 8.3603974,15.5048829 C8.6860047,15.2861329 9.0888978,15.2187501 9.4677888,15.3183595 L43.5390931,24.3183595 C44.1557923,24.4814454 44.5770875,25.0507814 44.5531922,25.6884767 L42.5531922,78.7031251 C42.538086,79.1083985 42.3422852,79.4873048 42.0195008,79.7333985 C41.7792969,79.9179688 41.487793,80.0146484 41.1908875,80.0146484 Z M3.6333008,68.6015625 L39.8905945,76.953125 L41.7875977,26.6757812 L10.2686005,18.3505859 L3.6333008,68.6015625 Z" id="Shape"></path>
                <path d="M41.3974915,80.0146484 C41.0907898,80.0146484 40.7890931,79.9111328 40.5448914,79.7148437 C40.2080079,79.4453125 40.0190125,79.0312499 40.0351868,78.5996093 L42.0351868,25.5849609 C42.0570984,25.0039062 42.4458008,24.5 43.0028992,24.3320312 L47.7388001,22.899414 C48.4574891,22.6787109 49.2196961,23.0888671 49.4379883,23.8095702 C49.6562805,24.5302733 49.2485047,25.2910155 48.5278015,25.508789 L44.7230835,26.6601562 L42.8291016,76.8662109 L78.0448914,67.6162109 L75.205597,17.4423828 L55.2333985,23.4814453 C54.5141907,23.7001953 53.7514954,23.2910156 53.5341797,22.5712891 C53.3158875,21.850586 53.7236023,21.0898438 54.4443054,20.8720703 L76.0741882,14.3320312 C76.4740905,14.2128906 76.9086914,14.2802734 77.25,14.5195312 C77.5922852,14.758789 77.8061829,15.1425781 77.8295898,15.5595703 L80.8295898,68.5742187 C80.8661804,69.2216796 80.4423828,69.8046875 79.8148803,69.9697265 L41.7436828,79.9697265 C41.6293945,80 41.5131836,80.0146484 41.3974915,80.0146484 Z" id="Shape"></path>
                <path d="M119.540497,79.0146484 C119.440887,79.0146484 119.34079,79.0039062 119.241699,78.9814453 L79.1698913,69.9814453 C78.5756835,69.8476562 78.1420898,69.3369141 78.1078796,68.7285156 L75.1078796,15.7138672 C75.082489,15.2714844 75.2743835,14.8447266 75.6210937,14.569336 C75.9678039,14.2919922 76.427185,14.2031251 76.852478,14.3291016 L110.924286,24.3291016 C111.423279,24.4746094 111.79538,24.8925782 111.883789,25.4042969 L120.844696,77.1923828 C120.895996,77.3359375 120.923798,77.4902344 120.923798,77.6513672 C120.923798,78.4042969 120.313477,79.0146484 119.560486,79.0146484 C119.553192,79.0136719 119.547394,79.0136719 119.540497,79.0146484 Z M80.7714844,67.546875 L117.849579,75.8740234 L109.341797,26.7060546 L77.9389954,17.4892577 L80.7714844,67.546875 Z" id="Shape"></path>
                <path d="M41.3974915,73.4033203 C41.2895813,73.4033203 41.1820984,73.390625 41.0762024,73.3652344 L8.0687866,65.3652344 C7.3970032,65.2021485 6.953598,64.5625 7.0365906,63.8759766 L12.0365906,22.6962891 C12.0844879,22.3046875 12.2993012,21.9521485 12.6264954,21.7314453 C12.9530945,21.5097656 13.3603974,21.4423828 13.7411957,21.5429687 L43.4003906,29.4501953 C43.835907,29.3271484 44.9111023,29.0146484 47.5209961,28.2314453 C48.2388001,28.0117187 49.0014954,28.4238281 49.2182922,29.1455078 C49.4346008,29.8662109 49.0253906,30.6259766 48.3041992,30.8427734 C44.0478821,32.1201172 43.7998047,32.1699218 43.6665039,32.1972656 C43.460907,32.2382812 43.2479858,32.2314453 43.0463867,32.1777344 L14.5541992,24.5820313 L9.8895874,63.0009766 L41.3843079,70.6337891 L79.1229859,60.7216797 C79.3374024,60.6640625 79.5648804,60.6621094 79.7812806,60.7128906 L111.788086,68.2421875 L105.279297,29.9521484 L76.4945984,22.2783203 C74.3725891,22.9257812 63.612793,26.2119141 55.0014954,28.8212891 C54.2797852,29.0400391 53.5190125,28.6328125 53.3013001,27.9121094 C53.0830079,27.1914063 53.4902039,26.4306641 54.2103882,26.2119141 C63.8065796,23.303711 76.0708008,19.5566407 76.0708008,19.5566407 C76.3148804,19.4814454 76.574707,19.4785157 76.820282,19.5429688 L106.827606,27.5429688 C107.343292,27.6806641 107.730988,28.1064454 107.820282,28.631836 L114.820282,69.8115235 C114.897003,70.2617188 114.742706,70.7207032 114.409699,71.0341797 C114.077087,71.3466797 113.609406,71.4736328 113.164581,71.3671875 L79.4873047,63.4443359 L41.7436829,73.3583984 C41.6304016,73.3886719 41.5137024,73.4033203 41.3974915,73.4033203 Z" id="Shape"></path>
                <path d="M32.7612,61.5283203 C32.5410004,61.5283203 32.3266907,61.5136719 32.1190949,61.4824219 C30.5399933,61.2392578 29.3891907,60.3076172 28.373993,59.4853516 C27.7411958,58.9736328 27.1436005,58.4902344 26.5653992,58.28125 C24.8208008,57.6533203 23.4057923,55.5380859 22.3730011,53.9931641 C22.1006012,53.5859375 21.7920074,53.1240235 21.6519012,52.9716797 C21.3041992,52.59375 21.1254882,52.1474609 21.0331878,51.6689453 C20.7826995,51.875 20.485794,52.0302734 20.129898,52.109375 C18.6405944,52.4414062 17.383789,51.1162109 16.5702972,50.0898438 C15.0238952,48.1396485 14.3769989,46.2197266 14.6474914,44.3828126 C14.9897003,42.0585938 16.6693878,40.8300782 16.8598937,40.6972657 C17.0272979,40.5810548 17.2191924,40.5029298 17.4203948,40.4707032 C18.0791015,40.3632813 23.9496917,39.4580079 27.1464995,40.5234376 C29.5092925,41.310547 29.9066924,43.1435548 29.9340972,44.3925782 C30.7040862,43.9941407 31.5795898,43.4150391 31.7934875,43.1025391 C32.7406921,41.2753907 38.1786804,37.8125 39.1029968,37.8125 C39.8559875,37.8125 40.4663086,38.4228516 40.4663086,39.1757812 C40.4663086,39.8652343 39.9541016,40.4355468 39.289093,40.5263671 C38.3345032,40.8916015 34.6864929,43.6669921 34.1737976,44.4277343 C33.5355987,45.6601562 29.7621918,48.1054687 28.141098,47.3886718 C27.0575866,46.9062499 27.1371918,45.758789 27.1850891,45.0742187 C27.2743988,43.7939453 27.1723938,43.4052734 26.2841949,43.1093749 C24.2592926,42.4345702 20.0800933,42.8388671 18.2216949,43.1064452 C17.9433898,43.376953 17.4545898,43.9609374 17.3397979,44.8134764 C17.1981963,45.8681639 17.6576995,47.073242 18.7070007,48.3964842 C19.0341949,48.8085936 19.2816925,49.0624998 19.4564972,49.2167967 C19.5800934,48.8691405 19.6947937,48.385742 19.7606964,48.1064451 C19.9868011,47.1503904 20.2206879,46.1611326 21.2558899,45.9453123 C21.4785004,45.8994139 22.2533875,45.8085935 22.8549957,46.6093748 C23.6542968,47.675781 23.657196,49.0175779 23.6601867,50.0957029 C23.661087,50.4550779 23.662094,50.9873045 23.7187957,51.1933591 C23.9853973,51.4990232 24.2769012,51.9355466 24.6395873,52.4775388 C25.3208007,53.4960935 26.5883941,55.3916013 27.4892882,55.7167966 C28.501007,56.0810544 29.3085936,56.7343747 30.0894011,57.3662107 C30.9086913,58.0302732 31.6825865,58.6562498 32.5341948,58.7871091 C33.6674956,58.9638669 36.1688841,57.8359372 37.5801085,56.9794919 C38.2236022,56.5898435 39.0624999,56.7949216 39.4526061,57.4374997 C39.8432921,58.0800778 39.6391906,58.9179685 38.9960936,59.30957 C38.3461914,59.7041016 35.2123871,61.5283203 32.7612,61.5283203 Z" id="Shape"></path>
                <path d="M58.7338867,43.4414062 C58.1820984,43.4414062 57.5834961,43.4091796 56.9315796,43.3359374 C55.1943054,43.1435546 53.6937866,42.977539 53.7001953,41.1835936 C53.7006836,41.041992 53.7006836,41.0341795 53.6416015,40.9287108 C53.270996,40.2734374 53.5014953,39.4414061 54.157196,39.0712889 C54.8120117,38.6992186 55.6440124,38.9316405 56.0145874,39.5869139 C56.2118835,39.9355467 56.3148804,40.251953 56.3686829,40.517578 C56.5718079,40.5478514 56.8500977,40.5839842 57.2323914,40.626953 C61.038086,41.0527342 62.1937867,39.8935546 62.8847962,39.2021483 C63.0336915,39.0527342 63.4062806,38.5556639 63.7353821,38.1171874 C65.6318054,35.5878905 67.2128906,33.6445312 68.9497071,33.8603515 C69.4653016,33.8115234 70.9296876,32.4531249 71.4111024,32.0058593 C72.0653993,31.399414 72.3940126,31.0947265 72.8241883,30.9511718 C72.8594056,30.939453 72.8940125,30.9287109 72.9277039,30.9189452 L73.0054017,30.8916014 L73.0072938,30.8964842 C74.2953797,30.5683592 74.69339,31.533203 74.7626954,31.7382811 C74.831482,31.9433592 75.0951844,32.9472655 73.8735047,33.4687499 L73.8754883,33.4746093 L73.8378906,33.4873046 C73.7026062,33.5996093 73.4550781,33.8291015 73.2655945,34.0048827 C71.7445984,35.4160155 70.2514954,36.6650389 68.7675781,36.580078 C68.0741882,36.8749999 66.5131836,38.9570311 65.9169922,39.7529296 C65.4418945,40.3857421 65.0990906,40.8437499 64.8125,41.1298827 C64.0272827,41.9150391 62.5004883,43.4414062 58.7338867,43.4414062 Z" id="Shape"></path>
                <path d="M45.6929016,38.7236328 C45.4462891,38.7236328 45.1962891,38.65625 44.9711914,38.515625 C44.3330078,38.1162109 44.1391907,37.2753906 44.5386047,36.6376953 C44.8100891,36.203125 45.7558899,35.2236328 48.5878906,35.4443359 C49.3388977,35.5048828 49.898407,36.1621093 49.8383789,36.9121093 C49.7782898,37.6630859 49.1171875,38.2109374 48.3706055,38.1630859 C47.2705078,38.0742187 46.8085938,38.2373047 46.6889954,38.2929687 C46.4271851,38.5732422 46.0635071,38.7236328 45.6929016,38.7236328 Z" id="Shape"></path>
                <path d="M62.362793,59.8476562 C61.7909851,59.8476562 61.2597962,59.4853515 61.0697937,58.915039 C61.0166016,58.7548828 60.5741882,57.2998046 61.5097961,55.6630859 C61.7016906,55.328125 61.7807922,54.0859375 61.3808899,53.3349609 C61.1698914,52.9375 60.9516907,52.921875 60.8340149,52.9130859 C59.0718079,52.7919921 57.7919922,53.6904297 57.3910828,54.290039 C56.7886048,55.1943359 54.4906922,58.1582031 50.2147828,58.3603515 C46.7006837,58.5273437 44.6752931,58.3642577 44.591797,58.3574218 C43.841797,58.2958984 43.2841798,57.6376952 43.3457032,56.8876952 C43.4071961,56.1367186 44.0653992,55.5888671 44.8153992,55.6406249 C44.8340149,55.6416015 46.7675782,55.7929687 50.085907,55.6376952 C53.0853882,55.4951171 54.6991882,53.4130858 55.1225891,52.7783202 C56.0463867,51.392578 58.2778015,49.986328 61.0332031,50.1943358 C62.2172851,50.2812499 63.1958008,50.9414061 63.7875976,52.0537108 C64.5498046,53.4853514 64.5336914,55.3574217 64.0922851,56.5478514 C64.5971984,56.3994139 65.0971984,56.2539061 65.4750976,56.1474608 C65.6401061,55.7499999 65.9398803,55.2910155 66.5151061,54.7158202 C66.9086913,54.3222655 67.2651061,53.8798827 67.6098937,53.4511718 C68.4437865,52.4160156 69.3061828,51.345703 70.614685,51.345703 C71.2685851,51.345703 73.6831054,51.0498046 75.0517883,50.8632811 C75.8027038,50.7539061 76.4844055,51.283203 76.5863952,52.0292967 C76.688507,52.7753905 76.165985,53.4628905 75.4198913,53.5644529 C75.0507812,53.6152341 71.8710937,54.0449217 70.7178039,54.0712888 C70.4902038,54.222656 70.0386047,54.7832029 69.7333984,55.1621091 C69.3617859,55.6230466 68.9403991,56.1464841 68.4429016,56.6435544 C68.0600891,57.0263669 67.9902038,57.1992185 67.9902038,57.1992185 C67.8812866,57.9755857 67.4320983,58.457031 66.6542968,58.6513669 C66.1381835,58.7802731 63.6645812,59.5175778 62.7548827,59.7900388 C62.6244812,59.8291016 62.4927063,59.8476562 62.362793,59.8476562 Z" id="Shape"></path>
                <path d="M102.972687,61.7919922 C102.292481,61.7919922 101.609894,61.6767578 100.990692,61.4404297 C98.6825867,60.5605469 96.5297852,59.2607422 95.2319031,57.9628906 C93.6688843,56.4013672 91.9740906,55.3925781 90.914093,55.3925781 C90.3569031,55.3925781 89.8721008,55.5927734 89.3110046,55.8242187 C88.4750976,56.1689453 87.4364929,56.5957031 86.0556945,56.3535156 C83.7704772,55.9482422 81.6073913,52.7539062 81.1967773,52.118164 C80.789093,51.4853515 80.9707031,50.6425781 81.602478,50.2343749 C82.2333984,49.8261718 83.0776062,50.0058593 83.4873047,50.6386718 C84.3671875,51.9970702 85.800293,53.5390624 86.5312805,53.6679687 C87.1000976,53.7705078 87.5204773,53.6132812 88.2714844,53.3027343 C88.9603882,53.0195312 89.8173828,52.6660155 90.914093,52.6660155 C93.507782,52.6660155 96.1454773,55.0214843 97.1586914,56.0351561 C98.3837891,57.2587889 100.44339,58.3134764 101.962402,58.8935545 C102.814484,59.2167967 103.879395,59.0488279 104.376495,58.7070311 C104.408203,58.6845702 104.490692,58.6249999 104.537079,58.5624999 C103.933594,57.6064452 100.657196,55.4716796 99.3916015,54.6464843 C98.3027038,53.9365234 97.810089,53.6113281 97.5415038,53.3437499 C97.4120788,53.2138671 96.9491881,52.8652343 96.5415038,52.5576171 C95.2309874,51.5703124 93.251007,50.0771483 91.9790038,48.423828 C90.1181945,46.0048827 90.9398803,44.7861327 92.0272826,43.6513671 C92.2167968,43.4541015 92.4311827,43.2333983 92.6435851,42.9599609 C93.8378905,41.4238281 95.958496,41.7998047 98.0083007,42.165039 C99.0766906,42.3544921 100.180695,42.5537109 100.966278,42.4453124 C101.231903,42.4101562 101.315887,42.3505858 101.316895,42.3496093 C101.348084,42.2089843 101.192902,41.6093749 101.116699,41.3193359 C100.672394,41.265625 100.044403,41.2207031 99.5770874,41.1875 C97.2782898,41.0244141 95.9115906,40.890625 95.2050781,40.1142578 C94.9857788,40.0166016 94.4042969,39.9267578 94.0478821,39.8720703 C92.9721985,39.7070312 91.4994812,39.4814453 91.227478,38.1230469 C91.1459961,37.7148438 90.4120788,36.5185547 89.6625976,36.0195313 C89.3550109,35.8134766 89.0770873,35.7373047 88.422882,35.5683594 C87.7792968,35.4023438 86.8978881,35.1757813 85.6221008,34.6650391 C83.1229858,33.6650391 80.8291015,32.5214844 80.7328796,32.4736329 C80.059082,32.1367188 79.7861023,31.3183595 80.1229858,30.6445313 C80.4603881,29.9716797 81.2792968,29.6992188 81.9516906,30.0341797 C81.9745788,30.0458985 84.2445983,31.1777344 86.6347961,32.1337891 C87.7479858,32.5791016 88.4994812,32.772461 89.1034851,32.928711 C89.8368835,33.1171876 90.4707031,33.2802735 91.175293,33.7500001 C92.2353821,34.4570313 93.3129883,35.8691407 93.7475891,37.0546876 C93.960907,37.100586 94.2471008,37.1445314 94.4613953,37.1777345 C95.3925782,37.3203126 96.4394837,37.4814454 97.1078797,38.154297 C97.5830079,38.3125001 98.9921876,38.4130861 99.7704774,38.4677736 C102.031281,38.6289064 103.665009,38.7451174 103.665009,40.3310548 C103.673798,40.3408204 103.709015,40.4570314 103.74408,40.5908204 C103.958008,41.4023438 104.315888,42.7607423 103.552704,43.9003907 C103.088379,44.5927735 102.339386,45.0126954 101.326691,45.1484376 C100.117706,45.3066407 98.8036804,45.0751954 97.5316773,44.8496095 C96.6879883,44.6982423 95.1195984,44.4218751 94.7792969,44.6494142 C94.5185852,44.9902345 94.2427063,45.2802736 93.9960938,45.5380861 C93.8700867,45.669922 93.7070008,45.8398439 93.6229859,45.9472658 C93.6679993,46.0615236 93.7938843,46.3115236 94.1401063,46.7617189 C95.1870118,48.1220705 96.9896852,49.4814455 98.1825868,50.3808595 C98.775879,50.8281251 99.20459,51.1503907 99.4682924,51.4140626 C99.6011049,51.5283204 100.280792,51.9716798 100.880402,52.3623048 C105.316895,55.2539064 107.295899,56.8232423 107.295899,58.4843751 C107.295899,59.4658204 106.808594,60.3427735 105.923279,60.9521485 C105.123993,61.5029297 104.051788,61.7919922 102.972687,61.7919922 Z" id="Shape"></path>
                <path d="M49.9429016,52.4521484 C48.9892883,52.4521484 48.085907,52.3408203 47.2861023,52.118164 C44.7597961,51.4169921 44.1186829,49.9160156 43.9613953,49.0830078 C43.6034851,47.1894531 44.9487,45.3193359 47.5600891,44.0800781 C48.3818054,43.6894531 49.364685,44.0390625 49.7554016,44.8613281 C50.1455078,45.6835937 49.7953796,46.6669922 48.9730835,47.0566406 C47.5814819,47.7177734 47.2172852,48.375 47.2016907,48.5019531 C47.3818054,48.7929687 49.0937805,49.4892578 51.8153992,48.9755859 C54.5370789,48.4609375 55.8770142,47.1855468 55.9263001,46.7880859 C55.9032898,46.7851562 55.6142884,46.5068359 54.8334961,46.3134765 C53.9501953,46.0937499 53.4125977,45.1992187 53.6322937,44.3164062 C53.8520813,43.4316406 54.7440796,42.8945312 55.6293945,43.1142578 C57.5986023,43.6044922 58.8881836,44.7314453 59.1669922,46.2080078 C59.6674805,48.8544922 56.8330078,51.3808594 52.4277039,52.2138672 C51.5853882,52.3730469 50.746582,52.4521484 49.9429016,52.4521484 Z" id="Shape"></path>
                <path d="M51.5644836,48.7910156 C50.6542968,48.7910156 49.9165039,48.0537109 49.9165039,47.1435547 L49.9165039,16.4111328 C49.9165039,15.5009766 50.6542969,14.7636719 51.5644836,14.7636719 C52.4745788,14.7636719 53.2124023,15.5009766 53.2124023,16.4111328 L53.2124023,47.1435547 C53.2124023,48.0537109 52.4745789,48.7910156 51.5644836,48.7910156 Z" id="Shape"></path>
                <path d="M51.5644836,17.2167969 C46.8280944,17.2167969 42.9745788,13.3632813 42.9745788,8.6269531 C42.9745788,3.8906249 46.8280944,0.0371093 51.5644836,0.0371093 C56.3007812,0.0371093 60.1542968,3.8906249 60.1542968,8.6269531 C60.1542968,13.3632813 56.3007812,17.2167969 51.5644836,17.2167969 Z M51.5644836,2.7636719 C48.3314819,2.7636719 45.7012024,5.3935547 45.7012024,8.6269531 C45.7012024,11.8603515 48.3314819,14.4902343 51.5644836,14.4902343 C54.7973938,14.4902343 57.4277038,11.8603515 57.4277038,8.6269531 C57.4277038,5.3935547 54.7973938,2.7636719 51.5644836,2.7636719 Z" id="Shape"></path>
                <path d="M48.0868835,9.4697266 C47.9398803,9.4697266 47.7904968,9.4462891 47.6435852,9.3955078 C46.9315796,9.1503906 46.5527039,8.375 46.7978821,7.6630859 C47.414093,5.8720703 48.3852844,4.6572265 49.6850891,4.0537109 C51.300293,3.3017578 52.7641907,3.8300781 52.9257812,3.8925781 C53.6278991,4.165039 53.976593,4.9550781 53.7041015,5.6572265 C53.4346008,6.352539 52.6576843,6.7031249 51.9618835,6.4433593 C51.563507,6.3076171 50.2250976,6.0791015 49.376007,8.5498046 C49.1815796,9.1152344 48.6528015,9.4697266 48.0868835,9.4697266 Z" id="Shape"></path>
                <path d="M49.8588867,13.2148438 C49.6977844,13.2148438 49.5341797,13.1865235 49.3744812,13.1259766 C48.4057922,12.756836 47.4862976,12.288086 47.3212891,11.3583985 C47.2373047,10.8857423 47.4306946,10.3154297 47.7929993,10.0009766 C48.3603821,9.5078125 49.2221985,9.5673828 49.7157898,10.1367188 C49.7836914,10.2148438 49.8407898,10.2978516 49.8876953,10.3847657 C49.9902038,10.4345704 50.1376953,10.4990235 50.3442078,10.5771485 C51.0478821,10.8447266 51.4013977,11.6328126 51.1333008,12.3359376 C50.9263,12.8808594 50.4086914,13.2148438 49.8588867,13.2148438 Z" id="Shape"></path>
            </g>
        </g>
    </g>
</svg>
