<?xml version="1.0" encoding="UTF-8"?>
<svg width="91px" height="75px" viewBox="0 0 91 75" version="1.1" xmlns="http://www.w3.org/2000/svg" xmlns:xlink="http://www.w3.org/1999/xlink">
    <g stroke="none" stroke-width="1" fill="none" fill-rule="evenodd">
        <g transform="translate(-206.000000, -2111.000000)" fill-rule="nonzero" fill="#14293C">
            <g id="Group" transform="translate(206.000000, 2111.000000)">
                <path d="M14.8677063,67.8730469 L2.2846985,67.8730469 C1.4561005,67.8730469 0.7846985,67.2011719 0.7846985,66.3730469 L0.7846985,49.6054688 C0.7846985,48.7773438 1.4561005,48.1054688 2.2846985,48.1054688 L29.3671875,48.1054688 C30.1958008,48.1054688 30.8671875,48.7773438 30.8671875,49.6054688 C30.8671875,50.4335938 30.1958008,51.1054688 29.3671875,51.1054688 L3.7846985,51.1054688 L3.7846985,64.8730469 L14.8677063,64.8730469 C15.6962891,64.8730469 16.3677063,65.5449219 16.3677063,66.3730469 C16.3677063,67.2011719 15.6962891,67.8730469 14.8677063,67.8730469 Z" id="Shape"></path>
                <path d="M30.1870117,67.8730469 L19.927185,67.8730469 C19.0986022,67.8730469 18.427185,67.2011719 18.427185,66.3730469 C18.427185,65.5449219 19.0986022,64.8730469 19.927185,64.8730469 L30.1870117,64.8730469 C31.0155945,64.8730469 31.6870117,65.5449219 31.6870117,66.3730469 C31.6870117,67.2011719 31.0155945,67.8730469 30.1870117,67.8730469 Z" id="Shape"></path>
                <path d="M64.7138977,67.8730469 L61.4945984,67.8730469 C60.6659851,67.8730469 59.9945984,67.2011719 59.9945984,66.3730469 C59.9945984,65.5449219 60.6659851,64.8730469 61.4945984,64.8730469 L64.7138977,64.8730469 C65.5424805,64.8730469 66.2138977,65.5449219 66.2138977,66.3730469 C66.2138977,67.2011719 65.5424805,67.8730469 64.7138977,67.8730469 Z" id="Shape"></path>
                <path d="M88.6611023,67.8730469 L69.9603882,67.8730469 C69.1318054,67.8730469 68.4603882,67.2011719 68.4603882,66.3730469 C68.4603882,65.5449219 69.1318054,64.8730469 69.9603882,64.8730469 L87.1611023,64.8730469 L87.1611023,51.1054688 L61.6908875,51.1054688 C60.8623047,51.1054688 60.1908875,50.4335938 60.1908875,49.6054688 C60.1908875,48.7773438 60.8623047,48.1054688 61.6908875,48.1054688 L88.6611023,48.1054688 C89.4896851,48.1054688 90.1611023,48.7773438 90.1611023,49.6054688 L90.1611023,66.3730469 C90.1611023,67.2011719 89.4896851,67.8730469 88.6611023,67.8730469 Z" id="Shape"></path>
                <path d="M7.0722961,20.5332031 C6.9950866,20.5332031 6.9170074,20.5273437 6.8383941,20.515625 C6.0200042,20.3867188 5.4603881,19.6201172 5.5883941,18.8007812 L7.8046874,4.6425781 C7.9188994,3.9130859 8.5478972,3.375 9.2865905,3.375 L33.7118835,3.375 C34.5404968,3.375 35.2118835,4.046875 35.2118835,4.875 C35.2118835,5.703125 34.5404968,6.375 33.7118835,6.375 L10.5702972,6.375 L8.5522003,19.265625 C8.4364929,20.0048828 7.7982941,20.5332031 7.0722961,20.5332031 Z" id="Shape"></path>
                <path d="M2.2885895,51.1054688 C2.2113953,51.1054688 2.1333008,51.0996094 2.0546875,51.0878907 C1.2362976,50.9589845 0.6767883,50.1923829 0.8046875,49.3740235 L2.8412933,36.3593751 C2.969696,35.5410157 3.7392883,34.9833985 4.555191,35.1083985 C5.3734893,35.2373047 5.9330902,36.0039063 5.805191,36.8222657 L3.7686004,49.8369141 C3.6527863,50.5771484 3.0145874,51.1054688 2.2885895,51.1054688 Z" id="Shape"></path>
                <path d="M88.6611023,51.1054688 L61.6908875,51.1054688 C60.8623047,51.1054688 60.1908875,50.4335938 60.1908875,49.6054688 C60.1908875,48.7773438 60.8623047,48.1054688 61.6908875,48.1054688 L86.9082032,48.1054688 L85.1420899,36.8232422 C85.0141907,36.0039063 85.5737,35.2373047 86.3920899,35.1083984 C87.2138978,34.984375 87.9784852,35.5410156 88.1059876,36.3583984 L90.143097,49.3730468 C90.2108765,49.8066406 90.0858765,50.2480468 89.8007813,50.5810546 C89.5160828,50.9140625 89.0995789,51.1054688 88.6611023,51.1054688 Z" id="Shape"></path>
                <path d="M83.9354858,19.890625 C83.2167968,19.890625 82.5814819,19.3720703 82.4584961,18.6396484 L80.3925781,6.375 L56.3773803,6.375 C55.5487975,6.375 54.8773803,5.703125 54.8773803,4.875 C54.8773803,4.046875 55.5487975,3.375 56.3773803,3.375 L81.6611022,3.375 C82.3935851,3.375 83.0185851,3.9033203 83.1401061,4.6259766 L85.4165038,18.1416016 C85.5541991,18.9580078 85.0033873,19.7324219 84.1864928,19.8701172 C84.102478,19.8837891 84.0185852,19.890625 83.9354858,19.890625 Z" id="Shape"></path>
                <path d="M51.8179016,8.8496094 C51.0644836,8.8496094 50.4150085,8.2832032 50.3291016,7.5166016 L49.9188843,3.8603516 L39.8061829,3.8603516 L39.5986023,5.8886719 C39.5137024,6.7119141 38.7651062,7.3007813 37.9535828,7.2275391 C37.1293946,7.1435547 36.5297852,6.40625 36.6142884,5.5820313 L36.9599915,2.2070313 C37.0386048,1.4423829 37.6831055,0.8603516 38.4520874,0.8603516 L51.2602844,0.8603516 C52.0238952,0.8603516 52.6659851,1.4345704 52.7510071,2.1933594 L53.3104859,7.1826172 C53.4028016,8.0058594 52.8100892,8.7480469 51.9867859,8.8398438 C51.9302063,8.8466797 51.8739929,8.8496094 51.8179016,8.8496094 Z" id="Shape"></path>
                <path d="M53.9989929,74.7783203 L36.5830078,74.7783203 C35.7543945,74.7783203 35.0830078,74.1064453 35.0830078,73.2783203 L35.0830078,67.8730469 L34.7133789,67.8730469 C33.8847961,67.8730469 33.2133789,67.2011719 33.2133789,66.3730469 L33.2133789,49.6054688 C33.2133789,49.5361329 33.2182922,49.4667969 33.227478,49.3984376 L33.7471008,45.6640626 C33.8612976,44.8437501 34.6190796,44.2685548 35.4394836,44.3857423 C36.2602844,44.5000001 36.832489,45.2568361 36.7187805,46.0781251 L36.2133789,49.7089845 L36.2133789,64.873047 L36.5830078,64.873047 C37.4115906,64.873047 38.0830078,65.544922 38.0830078,66.373047 L38.0830078,71.7783204 L52.4989929,71.7783204 L52.4989929,66.373047 C52.4989929,65.544922 53.1703796,64.873047 53.9989929,64.873047 L55.0575867,64.873047 L55.0575867,49.6992189 L52.9389954,32.7900392 C52.835907,31.9677736 53.4188843,31.2177736 54.2406922,31.1152345 C55.0722962,31.0175783 55.8125001,31.5957033 55.9154969,32.4169923 L58.0458985,49.4189454 C58.0536805,49.4804688 58.0575867,49.5429688 58.0575867,49.6054688 L58.0575867,66.3730469 C58.0575867,67.2011719 57.3862,67.8730469 56.5575867,67.8730469 L55.4989929,67.8730469 L55.4989929,73.2783203 C55.4989929,74.1064453 54.8276062,74.7783203 53.9989929,74.7783203 Z" id="Shape"></path>
                <path d="M52.2279968,51.1054688 L46.0791015,51.1054688 C45.2504882,51.1054688 44.5791015,50.4335938 44.5791015,49.6054688 C44.5791015,48.7773438 45.2504882,48.1054688 46.0791015,48.1054688 L52.2279968,48.1054688 C53.0565796,48.1054688 53.7279968,48.7773438 53.7279968,49.6054688 C53.7279968,50.4335938 53.0565796,51.1054688 52.2279968,51.1054688 Z" id="Shape"></path>
                <path d="M41.4512024,51.1054688 L39.4687805,51.1054688 C38.6401062,51.1054688 37.9687805,50.4335938 37.9687805,49.6054688 C37.9687805,48.7773438 38.6401062,48.1054688 39.4687805,48.1054688 L41.4512024,48.1054688 C42.2797852,48.1054688 42.9512024,48.7773438 42.9512024,49.6054688 C42.9512024,50.4335938 42.2797852,51.1054688 41.4512024,51.1054688 Z" id="Shape"></path>
                <path d="M50.0635071,67.1845703 L40.5507813,67.1845703 C39.7221985,67.1845703 39.0507813,66.5126953 39.0507813,65.6845703 C39.0507813,64.8564453 39.7221985,64.1845703 40.5507813,64.1845703 L50.0635071,64.1845703 C50.8920899,64.1845703 51.5635071,64.8564453 51.5635071,65.6845703 C51.5635071,66.5126953 50.8920898,67.1845703 50.0635071,67.1845703 Z" id="Shape"></path>
                <path d="M30.710907,33.4960938 L3.2846985,33.4960938 C2.8432923,33.4960938 2.4243012,33.3017579 2.1395874,32.9648438 C1.8544922,32.6279297 1.7323914,32.1826172 1.8056946,31.7470704 L3.3690949,22.4521485 C3.4901887,21.7294923 4.1156922,21.2011719 4.8480988,21.2011719 C4.8495942,21.2011719 4.8506012,21.2011719 4.8520966,21.2011719 L20.7973938,21.2431641 C21.6260071,21.2451172 22.2953796,21.9189453 22.2934876,22.7470703 C22.291504,23.5742187 21.6200867,24.2431641 20.7934876,24.2431641 C20.7919922,24.2431641 20.7909852,24.2431641 20.7895814,24.2431641 L6.1161958,24.2041016 L5.0580903,30.4960938 L30.7109071,30.4960938 C31.5395814,30.4960938 32.2109071,31.1679688 32.2109071,31.9960938 C32.2109071,32.8242188 31.5395813,33.4960938 30.710907,33.4960938 Z" id="Shape"></path>
                <path d="M53.8437805,25.9609375 C53.101593,25.9609375 52.4564819,25.4101563 52.3583984,24.6542969 L52.1395874,22.9746094 C52.0840149,22.5478516 52.2147827,22.1171875 52.4985046,21.7929688 C52.7826843,21.46875 53.1923828,21.2822266 53.6235046,21.28125 L57.1094055,21.2734375 C57.1103821,21.2734375 57.1117859,21.2734375 57.112793,21.2734375 C57.9398804,21.2734375 58.6107788,21.9423828 58.612793,22.7705078 C58.6146851,23.5986328 57.9443055,24.2714844 57.1161805,24.2734375 L55.3345033,24.2773437 C55.435486,25.0947265 54.8573915,25.8417968 54.0395814,25.9482421 C53.9736023,25.9570312 53.9082031,25.9609375 53.8437805,25.9609375 Z" id="Shape"></path>
                <path d="M54.5687866,33.5185547 C53.7987976,33.5185547 53.1435852,32.9296875 53.0762024,32.1484375 C53.0043945,31.3232422 53.6152039,30.5957031 54.4403992,30.5244141 L54.6991883,30.5019532 C54.7427064,30.498047 54.7855836,30.4960938 54.8291016,30.4960938 L84.4833985,30.4960938 L83.4263001,24.2050782 L71.3661805,24.2421876 C71.3646851,24.2421876 71.3632813,24.2421876 71.361786,24.2421876 C70.5351869,24.2421876 69.8642884,23.5732423 69.861786,22.7470704 C69.8594056,21.9179688 70.5287782,21.2451173 71.3573915,21.2421876 L84.6898805,21.201172 C84.6914064,21.201172 84.6929017,21.201172 84.6943055,21.201172 C85.4267884,21.201172 86.0521851,21.7294923 86.1737977,22.4521486 L87.7362977,31.7470705 C87.8090821,32.1826174 87.6870118,32.6279299 87.4018861,32.9648439 C87.1171876,33.301758 86.6981813,33.4960939 86.2568055,33.4960939 L54.7001954,33.5126955 C54.6557922,33.5166016 54.6117859,33.5185547 54.5687866,33.5185547 Z" id="Shape"></path>
                <path d="M24.0386047,16.0732422 C23.6748047,16.0732422 23.3100891,15.9414063 23.0214843,15.6757813 C22.4130859,15.1132813 22.3749999,14.1640625 22.9370116,13.5556641 C24.3690795,12.0058594 27.0429991,10.5351563 31.6499022,12.350586 C32.4208983,12.6542969 32.7998045,13.5244141 32.4960936,14.2958985 C32.1929015,15.0664063 31.323181,15.4482423 30.5512999,15.1416016 C26.8861998,13.7011719 25.573181,15.1240235 25.1410826,15.5908204 C24.8457031,15.9111328 24.4429016,16.0732422 24.0386047,16.0732422 Z" id="Shape"></path>
                <path d="M42.2558899,30.0273438 C32.8208008,30.0273438 24.0644837,25.7792969 22.1040039,20.1591797 C21.3573914,18.0195313 20.9844055,13.7675781 26.8725891,9.3378906 C30.132782,6.883789 33.3041992,6.1679687 36.2978821,7.2138672 C43.3090821,9.6601563 46.3695984,21.1455078 46.4965821,21.6328125 L47.3247071,25.2226563 L47.3153992,25.2246094 C47.4501953,25.6132813 47.3603821,25.8447266 47.2622071,26.0996094 C47.0249024,26.7138672 46.4302064,27.1201172 45.7562867,27.0556641 C45.3457032,27.0263672 44.9770814,26.8320313 44.7216798,26.5332032 C44.604004,26.3984376 42.5404969,24.0429688 39.634308,21.4062501 C38.9013978,20.7402345 38.1732789,20.1113282 37.4696962,19.5341798 C36.8291017,19.0087892 36.735779,18.0634767 37.2612001,17.4228517 C37.7851869,16.7832033 38.7304994,16.6875001 39.372101,17.2138673 C40.1142885,17.8232423 40.8808901,18.4853517 41.6503908,19.1845704 C42.1283876,19.6181642 42.5683901,20.0214845 42.9721987,20.397461 C41.7230837,16.8798829 39.0546877,11.350586 35.3065798,10.0458985 C33.2895815,9.3417969 31.1195986,9.8955079 28.6763003,11.7343751 C26.3876956,13.4570313 23.8808901,16.1445313 24.9364932,19.1708985 C26.495087,23.6396485 34.7626956,27.2236329 42.9956057,27.0185547 C43.0087893,27.0175781 43.0220034,27.0175781 43.0355837,27.0175781 C43.8457033,27.0175781 44.5126955,27.6640625 44.5341799,28.4785156 C44.5556948,29.3066406 43.9018862,29.9951172 43.0737002,30.0166015 C42.8007812,30.0244141 42.5278015,30.0273438 42.2558899,30.0273438 Z" id="Shape"></path>
                <path d="M36.8852844,25.1044922 C36.8330078,25.1044922 36.7803039,25.1015625 36.727478,25.0966797 C28.8916015,24.2773438 26.5718078,17.8847656 26.4770813,17.6123047 C26.2035828,16.8310547 26.6161804,15.9755859 27.398407,15.7021485 C28.1781922,15.4277344 29.0312805,15.8388673 29.3065796,16.6171876 C29.3866882,16.8359376 31.155304,21.498047 37.039093,22.1123048 C37.8632812,22.1992189 38.4613952,22.9365236 38.375,23.7607423 C38.2944031,24.53125 37.6435852,25.1044922 36.8852844,25.1044922 Z" id="Shape"></path>
                <path d="M68.4516907,16.0732422 C68.0473938,16.0732422 67.6445008,15.9111328 67.3490906,15.5908203 C66.9071961,15.1123047 65.5590821,13.6533203 61.757782,15.2148437 C60.9927063,15.5283203 60.1152039,15.1630859 59.800293,14.3974609 C59.4853821,13.6308593 59.8511048,12.7548828 60.6171875,12.4394531 C65.3569031,10.4921875 68.0917969,11.9716797 69.5531921,13.555664 C70.1152038,14.1640624 70.0770874,15.1132812 69.4687805,15.6757812 C69.1802063,15.9414062 68.8153992,16.0732422 68.4516907,16.0732422 Z" id="Shape"></path>
                <path d="M50.2344055,30.0273438 C49.9613952,30.0273438 49.6898804,30.0244141 49.4165039,30.0166016 C48.5883789,29.9951172 47.9346008,29.3066407 47.9560852,28.4785157 C47.977478,27.6640626 48.6445007,27.0175782 49.4545898,27.0175782 C49.4682922,27.0175782 49.4813842,27.0175782 49.4945983,27.0185548 C57.7236022,27.2373048 65.9945983,23.6406251 67.5531921,19.1708986 C68.6088867,16.1445314 66.102478,13.4570314 63.8139953,11.7343752 C61.3686828,9.895508 59.1986999,9.3437502 57.1802062,10.0468752 C53.4223937,11.3574221 50.7583007,16.886719 49.508789,20.4238283 C50.5137023,19.4638674 51.6596984,18.4238283 52.8901061,17.4033205 C53.5292968,16.8769533 54.4750976,16.9638674 55.0023803,17.6015627 C55.5312804,18.239258 55.4429015,19.1845705 54.8052062,19.7138674 C50.8999022,22.9501955 47.7900084,26.5087893 47.7593078,26.5439455 C47.3075866,27.0625002 46.5596008,27.208008 45.946289,26.895508 C45.3330078,26.583008 45.0111999,25.8935549 45.1654968,25.2226564 L45.9833984,21.6738283 C46.1206054,21.145508 49.1811828,9.6601564 56.1923828,7.2138674 C59.1850891,6.1689455 62.3569031,6.8847658 65.6177063,9.3378908 C71.5054016,13.7675783 71.1322937,18.0195314 70.3862,20.1591799 C68.4257812,25.7792969 59.6684875,30.0273438 50.2344055,30.0273438 Z" id="Shape"></path>
                <path d="M55.605011,25.1044922 C54.8466797,25.1044922 54.1958008,24.53125 54.1152039,23.7607422 C54.0287781,22.9365234 54.6270142,22.1992188 55.4512024,22.1123047 C61.4150086,21.4892578 63.164093,16.671875 63.1811829,16.6240235 C63.4545899,15.8417969 64.3120118,15.4296876 65.0917969,15.7021485 C65.8739929,15.975586 66.2865906,16.8310547 66.0131836,17.6123047 C65.9184876,17.8847656 63.5986023,24.2773438 55.7626953,25.0966797 C55.7099915,25.1015625 55.657196,25.1044922 55.605011,25.1044922 Z" id="Shape"></path>
                <path d="M35.9350891,42.9316406 C35.4848938,42.9316406 35.0400085,42.7304687 34.7445984,42.3457031 C34.2396851,41.6884765 34.3632813,40.7470703 35.019989,40.2421875 L50.9057922,28.0380859 C51.563507,27.5341797 52.5043945,27.65625 53.0092773,28.3134765 C53.5141906,28.9707031 53.3905944,29.9121093 52.7338867,30.4169921 L36.8480835,42.6210937 C36.5756836,42.8300781 36.2539062,42.9316406 35.9350891,42.9316406 Z" id="Shape"></path>
                <path d="M31.3241882,46.6972656 C30.9091797,46.6972656 30.4979858,46.5253906 30.2041015,46.1953125 L25.353485,40.7539063 C25.0747069,40.4414063 24.9394835,40.0263672 24.9804992,39.6093751 C25.0214843,39.1923829 25.2348937,38.8115235 25.5693054,38.5585939 L40.467804,27.3125 C41.1278992,26.8134766 42.0693055,26.9443359 42.5687867,27.6064453 C43.0679017,28.2675781 42.936493,29.2080078 42.2753907,29.7070312 L28.6757813,39.9726562 L31.5708008,43.2207031 L32.2157898,42.7851562 C32.9022827,42.3203124 33.8353882,42.5029296 34.2982788,43.1894531 C34.7616882,43.8759765 34.5810852,44.8076172 33.8945007,45.2714843 L32.1630859,46.4404296 C31.907196,46.6132812 31.6146851,46.6972656 31.3241882,46.6972656 Z" id="Shape"></path>
                <path d="M51.4228821,36.3417969 C50.5942078,36.3417969 49.9228821,35.6699219 49.9228821,34.8417969 L49.9228821,31.0957031 C49.9228821,30.2675781 50.5942078,29.5957031 51.4228821,29.5957031 C52.2514954,29.5957031 52.9228821,30.2675781 52.9228821,31.0957031 L52.9228821,34.8417969 C52.9228821,35.6699219 52.2514954,36.3417969 51.4228821,36.3417969 Z" id="Shape"></path>
                <path d="M51.4228821,45.2773438 L44.3251953,45.2773438 C43.496582,45.2773438 42.8251953,44.6054688 42.8251953,43.7773438 L42.8251953,36.625 C42.8251953,35.796875 43.496582,35.125 44.3251953,35.125 C45.1537781,35.125 45.8251953,35.796875 45.8251953,36.625 L45.8251953,42.2773438 L49.9228821,42.2773438 L49.9228821,39.1074219 C49.9228821,38.2792969 50.5942078,37.6074219 51.4228821,37.6074219 C52.2514954,37.6074219 52.9228821,38.2792969 52.9228821,39.1074219 L52.9228821,43.7773438 C52.9228821,44.6054688 52.2514954,45.2773438 51.4228821,45.2773438 Z" id="Shape"></path>
                <path d="M10.4897003,28.3544922 L8.0702972,28.3544922 C7.2416992,28.3544922 6.5702972,27.6826172 6.5702972,26.8544922 C6.5702972,26.0263672 7.2416992,25.3544922 8.0702972,25.3544922 L10.4897003,25.3544922 C11.3183899,25.3544922 11.9897003,26.0263672 11.9897003,26.8544922 C11.9897003,27.6826172 11.3183899,28.3544922 10.4897003,28.3544922 Z" id="Shape"></path>
                <path d="M15.5507812,28.3544922 L14.6918945,28.3544922 C13.8632965,28.3544922 13.1918945,27.6826172 13.1918945,26.8544922 C13.1918945,26.0263672 13.8632965,25.3544922 14.6918945,25.3544922 L15.5507812,25.3544922 C16.3793945,25.3544922 17.0507812,26.0263672 17.0507812,26.8544922 C17.0507812,27.6826172 16.3793945,28.3544922 15.5507812,28.3544922 Z" id="Shape"></path>
                <path d="M33.0561829,39.7822266 C32.7427063,39.7822266 32.4340821,39.6357422 32.2392884,39.3603516 C31.9198914,38.9101563 32.0263978,38.2851563 32.4770814,37.9658204 L40.5023805,32.279297 C40.9535829,31.9599611 41.5770875,32.0673829 41.8964845,32.5175782 C42.2157899,32.9677735 42.1094056,33.5927735 41.6586915,33.9121094 L33.6333009,39.5986328 C33.4580078,39.7226562 33.2558899,39.7822266 33.0561829,39.7822266 Z" id="Shape"></path>
                <path d="M81.7050781,28.3544922 L79.2167969,28.3544922 C78.3881836,28.3544922 77.7167969,27.6826172 77.7167969,26.8544922 C77.7167969,26.0263672 78.3881836,25.3544922 79.2167969,25.3544922 L81.7050781,25.3544922 C82.5336914,25.3544922 83.2050781,26.0263672 83.2050781,26.8544922 C83.2050781,27.6826172 82.5336914,28.3544922 81.7050781,28.3544922 Z" id="Shape"></path>
                <path d="M74.4136047,28.3544922 L72.6981811,28.3544922 C71.8695983,28.3544922 71.1981811,27.6826172 71.1981811,26.8544922 C71.1981811,26.0263672 71.8695983,25.3544922 72.6981811,25.3544922 L74.4136047,25.3544922 C75.2421875,25.3544922 75.9136047,26.0263672 75.9136047,26.8544922 C75.9136047,27.6826172 75.2421875,28.3544922 74.4136047,28.3544922 Z" id="Shape"></path>
                <path d="M47.8739929,40.6201172 C47.3218078,40.6201172 46.8739929,40.1728516 46.8739929,39.6201172 L46.8739929,36.5908203 C46.8739929,36.0380859 47.3218078,35.5908203 47.8739929,35.5908203 C48.4263,35.5908203 48.8739929,36.0380859 48.8739929,36.5908203 L48.8739929,39.6201172 C48.8739929,40.1728516 48.4263,40.6201172 47.8739929,40.6201172 Z" id="Shape"></path>
                <path d="M31.7763977,73.6103516 L5.2846985,73.6103516 C4.4561005,73.6103516 3.7846985,72.9384766 3.7846985,72.1103516 L3.7846985,70.484375 C3.7846985,69.65625 4.4561005,68.984375 5.2846985,68.984375 C6.1132965,68.984375 6.7846985,69.65625 6.7846985,70.484375 L6.7846985,70.6103516 L31.7763977,70.6103516 C32.605011,70.6103516 33.2763977,71.2822266 33.2763977,72.1103516 C33.2763977,72.9384766 32.605011,73.6103516 31.7763977,73.6103516 Z" id="Shape"></path>
                <path d="M85.1356812,73.6103516 L58.6440125,73.6103516 C57.8153992,73.6103516 57.1440125,72.9384766 57.1440125,72.1103516 C57.1440125,71.2822266 57.8153992,70.6103516 58.6440125,70.6103516 L83.6356812,70.6103516 L83.6356812,70.484375 C83.6356812,69.65625 84.3070984,68.984375 85.1356812,68.984375 C85.964386,68.984375 86.6356812,69.65625 86.6356812,70.484375 L86.6356812,72.1103516 C86.6356812,72.9384766 85.964386,73.6103516 85.1356812,73.6103516 Z" id="Shape"></path>
            </g>
        </g>
    </g>
</svg>
