<?xml version="1.0" encoding="UTF-8"?>
<svg width="108px" height="101px" viewBox="0 0 108 101" version="1.1" xmlns="http://www.w3.org/2000/svg" xmlns:xlink="http://www.w3.org/1999/xlink">
    <g stroke="none" stroke-width="1" fill="none" fill-rule="evenodd">
        <g transform="translate(-10.000000, -3324.000000)" fill-rule="nonzero" fill="#EED65B">
            <g id="Group" transform="translate(10.000000, 3324.000000)">
                <path d="M94.055191,82.1650391 C90.8466949,82.1650391 88.2368011,79.5546875 88.2368011,76.3457032 L88.2368011,75.538086 L11.5059051,53.5800782 C10.5425033,55.5097657 8.5552024,56.7939454 6.3086051,56.7939454 C3.0996055,56.7939454 0.4893035,54.1835938 0.4893035,50.9746095 L0.4893035,29.9794923 C0.4893035,26.7714845 3.0996055,24.1611329 6.3086051,24.1611329 C8.8101043,24.1611329 10.937004,25.725586 11.7554053,27.9531251 L88.2368048,7.0039063 L88.2368048,6.2587891 C88.2368048,3.0507813 90.8466986,0.4404297 94.0551947,0.4404297 C97.2641943,0.4404297 99.8745001,3.0507813 99.8745001,6.2587891 L99.8745001,76.3457032 C99.8744965,79.5546875 97.2641907,82.1650391 94.055191,82.1650391 Z M10.5498009,50.2460938 C10.6879998,50.2460938 10.8270989,50.265625 10.9623986,50.303711 L90.1493951,72.9648438 C90.7929956,73.1494141 91.2367974,73.7373047 91.2367974,74.4072266 L91.2367974,76.3457032 C91.2367974,77.9003907 92.5010033,79.1650391 94.0551873,79.1650391 C95.6098901,79.1650391 96.8744927,77.9003907 96.8744927,76.3457032 L96.8744927,6.2587891 C96.8744927,4.7050782 95.60989,3.4404297 94.0551873,3.4404297 C92.5010033,3.4404297 91.2367974,4.7050781 91.2367974,6.2587891 L91.2367974,8.1484375 C91.2367974,8.8242187 90.7846947,9.4169922 90.133297,9.5947266 L11.0077935,31.2675782 C10.5639916,31.3906251 10.0927926,31.3017579 9.7235909,31.0302735 C9.3544922,30.7587891 9.1293908,30.3339844 9.1122933,29.8759766 C9.0561905,28.3535157 7.8246918,27.1611328 6.3085938,27.1611328 C4.753891,27.1611328 3.4892922,28.4257812 3.4892922,29.9794922 L3.4892922,50.9746094 C3.4892922,52.5292969 4.753891,53.7939453 6.3085938,53.7939453 C7.6679917,53.7939453 8.8310929,52.8203125 9.0736924,51.4785156 C9.1493913,51.0615234 9.3978921,50.696289 9.7572938,50.4726562 C9.9976006,50.3232422 10.2724991,50.2460938 10.5498009,50.2460938 Z" id="Shape"></path>
                <path d="M10.4281998,48.9492188 C9.5996018,48.9492188 8.9281998,48.2773438 8.9281998,47.4492188 L8.9281998,33.9619141 C8.9281998,33.1337891 9.5996018,32.4619141 10.4281998,32.4619141 C11.2568016,32.4619141 11.9281998,33.1337891 11.9281998,33.9619141 L11.9281998,47.4492188 C11.9281998,48.2773438 11.2568016,48.9492188 10.4281998,48.9492188 Z" id="Shape"></path>
                <path d="M89.953598,60.0800781 C89.125,60.0800781 88.453598,59.4082031 88.453598,58.5800781 L88.453598,11.6230469 C88.453598,10.7949219 89.125,10.1230469 89.953598,10.1230469 C90.782196,10.1230469 91.453598,10.7949219 91.453598,11.6230469 L91.453598,58.5800781 C91.453598,59.4082031 90.782196,60.0800781 89.953598,60.0800781 Z" id="Shape"></path>
                <path d="M89.953598,67.3740234 C89.125,67.3740234 88.453598,66.7021484 88.453598,65.8740234 L88.453598,63.1386718 C88.453598,62.3105468 89.125,61.6386718 89.953598,61.6386718 C90.782196,61.6386718 91.453598,62.3105468 91.453598,63.1386718 L91.453598,65.8740234 C91.453598,66.7021484 90.782196,67.3740234 89.953598,67.3740234 Z" id="Shape"></path>
                <path d="M89.953598,72.8457031 C89.125,72.8457031 88.453598,72.1738281 88.453598,71.3457031 L88.453598,70.2441406 C88.453598,69.4160156 89.125,68.7441406 89.953598,68.7441406 C90.782196,68.7441406 91.453598,69.4160156 91.453598,70.2441406 L91.453598,71.3457031 C91.453598,72.1738281 90.782196,72.8457031 89.953598,72.8457031 Z" id="Shape"></path>
                <path d="M15.9243011,36.2998047 C15.2607002,36.2998047 14.6538009,35.8564453 14.4756011,35.1845703 C14.2631988,34.3837891 14.7397002,33.5625 15.5405005,33.3496094 L66.4281996,19.8486328 C67.2294996,19.633789 68.0503004,20.1132812 68.2626951,20.9140625 C68.4750974,21.7148437 67.9984968,22.5361328 67.1977995,22.7490234 L16.3101006,36.25 C16.1811981,36.2841797 16.0517998,36.2998047 15.9243011,36.2998047 Z" id="Shape"></path>
                <path d="M71.3544998,21.6220703 C70.6942978,21.6220703 70.089798,21.1835937 69.9081955,20.515625 C69.6903992,19.7167969 70.1620941,18.8925781 70.9613953,18.6748047 L78.6308976,16.5878906 C79.4320985,16.3671875 80.2548981,16.8417968 80.4721986,17.6416015 C80.6898957,18.4404296 80.2183,19.2646484 79.4188996,19.4824218 L71.7494965,21.5693359 C71.6176987,21.6054688 71.4848938,21.6220703 71.3544998,21.6220703 Z" id="Shape"></path>
                <path d="M82.5820007,18.7529297 C81.9662933,18.7529297 81.3891983,18.3710938 81.169899,17.7587891 C80.8905945,16.9785157 81.2963944,16.1201172 82.0766907,15.8408203 L83.3618012,15.3808594 C84.140091,15.1035156 85.0000001,15.506836 85.2792969,16.2871094 C85.5585937,17.0673828 85.1528015,17.9257813 84.3725891,18.2050782 L83.0874023,18.6650391 C82.9203949,18.7246094 82.75,18.7529297 82.5820007,18.7529297 Z" id="Shape"></path>
                <path d="M84.6840973,74.1953125 C83.8554993,74.1953125 83.1840973,73.5234375 83.1840973,72.6953125 L83.1840973,22.9335937 C83.1840973,22.1054687 83.8554993,21.4335937 84.6840973,21.4335937 C85.5126953,21.4335937 86.1840973,22.1054687 86.1840973,22.9335937 L86.1840973,72.6953125 C86.1840973,73.5234375 85.5126953,74.1953125 84.6840973,74.1953125 Z" id="Shape"></path>
                <path d="M79.0248947,72.8769531 C78.1962967,72.8769531 77.5248947,72.2050781 77.5248947,71.3769531 L77.5248947,24.4003906 C77.5248947,23.5722656 78.1962967,22.9003906 79.0248947,22.9003906 C79.8535004,22.9003906 80.5248947,23.5722656 80.5248947,24.4003906 L80.5248947,71.3769531 C80.5248947,72.2050781 79.8535004,72.8769531 79.0248947,72.8769531 Z" id="Shape"></path>
                <path d="M73.1455002,71.3300781 C72.3168945,71.3300781 71.6455002,70.6582031 71.6455002,69.8300781 L71.6455002,26.0361328 C71.6455002,25.2080078 72.3168945,24.5361328 73.1455002,24.5361328 C73.9740982,24.5361328 74.6455002,25.2080078 74.6455002,26.0361328 L74.6455002,69.8300781 C74.6455002,70.6582031 73.9740982,71.3300781 73.1455002,71.3300781 Z" id="Shape"></path>
                <path d="M67.0458984,69.5117188 C66.2173004,69.5117188 65.5458984,68.8398438 65.5458984,68.0117188 L65.5458984,27.0888672 C65.5458984,26.2607422 66.2173004,25.5888672 67.0458984,25.5888672 C67.8744964,25.5888672 68.5458984,26.2607422 68.5458984,27.0888672 L68.5458984,68.0117188 C68.5458984,68.8398438 67.8744965,69.5117188 67.0458984,69.5117188 Z" id="Shape"></path>
                <path d="M37.0102997,69.8798828 C36.5820007,69.8798828 36.2769013,69.8183594 36.2045975,69.8027344 L19.3432999,65.866211 C17.0561982,65.4853516 15.2686005,64.3916016 14.028801,62.6152344 C11.2461014,58.6269532 12.3799019,52.5947266 12.429699,52.3398438 C12.5873986,51.5273438 13.3735009,50.9980469 14.1884995,51.1542969 C15.0009995,51.3125 15.5317002,52.0996094 15.3745003,52.9121094 C15.3613014,52.9824219 14.4418984,57.9746094 16.4940987,60.9052735 C17.2709999,62.0146485 18.3769989,62.6718751 19.8744965,62.9140626 C19.9092026,62.9189454 19.9429017,62.9257814 19.9766007,62.9335938 L36.8695984,66.8769532 C36.9429016,66.8906251 37.3291016,66.9091798 37.5526962,66.7343751 C37.7656021,66.5683595 37.9042968,66.1689454 37.9433975,65.6103517 C38.1615982,62.4843751 38.1772003,60.4033205 38.1772003,60.3828126 C38.1826019,59.5576173 38.8529968,58.8916017 39.6772003,58.8916017 C39.6801987,58.8916017 39.6830978,58.8916017 39.6865005,58.8916017 C40.5146026,58.8964845 41.1820983,59.5722658 41.1772003,60.4003908 C41.1768036,60.4882814 41.1615982,62.5898439 40.9365005,65.8193361 C40.8061981,67.6787111 39.9961013,68.654297 39.3394012,69.1445314 C38.5322037,69.7470703 37.6391983,69.8798828 37.0102997,69.8798828 Z" id="Shape"></path>
                <path d="M33.6929016,100.12793 C33.1875,100.12793 32.6801987,100.047852 32.1855011,99.8876953 L16.767601,95.7978515 C14.1343002,94.9482421 12.7275009,92.1953124 13.5541992,89.6376953 C14.1636009,87.7548828 15.7915001,86.5009765 17.6391983,86.2978515 L17.8105011,64.7968749 C17.8174019,63.9726561 18.4872971,63.3085937 19.3100967,63.3085937 C19.3144989,63.3085937 19.3183975,63.3085937 19.3223037,63.3085937 C20.1509017,63.3154296 20.8169021,63.9921875 20.810501,64.8203125 L20.6265029,87.9179687 C20.6225967,88.3876953 20.3993987,88.8281249 20.0229034,89.1083984 C19.6464996,89.3886718 19.1592025,89.4765625 18.709999,89.3476562 C17.729,89.0615234 16.7201995,89.5976562 16.408699,90.5615234 C16.0908012,91.5439453 16.6313018,92.602539 17.6142997,92.9208984 L33.0326995,97.0107422 C33.5845031,97.1865234 34.0938033,97.1484375 34.5395965,96.9199219 C34.9849014,96.6923828 35.3149032,96.3046875 35.4692001,95.828125 C35.6230011,95.3525391 35.5824966,94.8457031 35.3544998,94.4003906 C35.1348038,93.9697265 34.766098,93.6474609 34.3130035,93.4873047 L32.6938018,93.1064453 C32.0723037,92.9609375 31.6112975,92.4375 31.5454024,91.8017578 C30.7948989,84.6064453 30.9438018,68.984375 30.9506987,68.3222656 C30.9589995,67.4990234 31.6288985,66.8378906 32.4502028,66.8378906 C32.4555968,66.8378906 32.4608992,66.8378906 32.4657973,66.8378906 C33.294403,66.8466797 33.9589995,67.524414 33.9506987,68.3535156 C33.9492033,68.5058594 33.8105009,82.9863281 34.4307021,90.4326172 L35.0679015,90.5830078 C35.1073989,90.5917969 35.1470031,90.6035156 35.1859969,90.6162109 C36.4247969,91.0166015 37.4330977,91.875 38.0259017,93.0341797 C38.618698,94.1933594 38.7240981,95.5136719 38.3236999,96.7519531 C37.9228973,97.9912109 37.0634994,98.9990234 35.9042968,99.5917969 C35.2080002,99.9472656 34.4531021,100.12793 33.6929016,100.12793 Z" id="Shape"></path>
                <path d="M25.5425034,91.5214844 C25.4057999,91.5214844 25.2666016,91.5029297 25.1284028,91.4638672 L21.9608994,90.5556641 C21.1645966,90.3271485 20.7041016,89.4960938 20.932602,88.7001953 C21.1615983,87.9042969 21.9906998,87.4423828 22.7881013,87.6708984 L25.955597,88.5791015 C26.751999,88.8076171 27.2124024,89.6386718 26.9839021,90.4345703 C26.794899,91.0927734 26.1948013,91.5214844 25.5425034,91.5214844 Z" id="Shape"></path>
                <path d="M29.7505035,92.6171875 C29.6182022,92.6171875 29.4839019,92.5996094 29.3500976,92.5634766 L28.3281021,92.28125 C27.5298004,92.0605469 27.060997,91.234375 27.2817001,90.4355469 C27.5019989,89.6367188 28.328598,89.1748047 29.1269989,89.3886719 L30.1489029,89.6708985 C30.9473038,89.8916016 31.4160004,90.7177735 31.1952972,91.5166016 C31.0117035,92.1816406 30.4082031,92.6171875 29.7505035,92.6171875 Z" id="Shape"></path>
                <path d="M99.737793,51.7587891 C98.909195,51.7587891 98.237793,51.0869141 98.237793,50.2587891 C98.237793,49.4306641 98.909195,48.7587891 99.737793,48.7587891 C102.335404,48.7587891 104.4487,46.6455079 104.4487,44.0478516 L104.4487,38.1015625 C104.4487,35.5029297 102.335404,33.3896484 99.737793,33.3896484 C98.909195,33.3896484 98.237793,32.7177734 98.237793,31.8896484 C98.237793,31.0615234 98.909195,30.3896484 99.737793,30.3896484 C103.9897,30.3896484 107.4487,33.8496093 107.4487,38.1015625 L107.4487,44.0478516 C107.4487,48.2998047 103.9897,51.7587891 99.737793,51.7587891 Z" id="Shape"></path>
                <path d="M29.0576019,88.8242188 C28.7300033,88.8242188 28.4003982,88.7177735 28.1244964,88.4980469 C20.5186004,82.444336 21.830101,69.7529297 21.8896026,69.2158203 C21.9804992,68.3925781 22.7163009,67.7988281 23.5438995,67.890625 C24.3672027,67.9804688 24.9608993,68.7216797 24.8715973,69.5449219 C24.858902,69.6601563 23.689003,81.1337891 29.9926987,86.1503907 C30.6410981,86.6660157 30.7480011,87.6103516 30.232399,88.2587891 C29.935997,88.6308594 29.4990005,88.8242188 29.0576019,88.8242188 Z" id="Shape"></path>
            </g>
        </g>
    </g>
</svg>
