<?xml version="1.0" encoding="UTF-8"?>
<svg width="120px" height="135px" viewBox="0 0 120 135" version="1.1" xmlns="http://www.w3.org/2000/svg" xmlns:xlink="http://www.w3.org/1999/xlink">
    <g stroke="none" stroke-width="1" fill="none" fill-rule="evenodd">
        <g transform="translate(-361.000000, -3131.000000)" fill-rule="nonzero" fill="#EED65B">
            <g id="Group" transform="translate(361.000000, 3131.000000)">
                <path d="M63.5351868,132.114258 C61.5683899,132.114258 59.1601868,131.585938 56.320282,130.25 C53.0722962,128.720703 50.852478,125.84668 49.8241882,121.875 C49.4608764,122.328125 49.0614929,122.740234 48.6229858,123.099609 C47.1366882,124.318359 45.351593,124.761719 43.4580078,124.386719 C37.9150085,123.279297 36.0957031,121.241211 35.007782,120.023438 C34.234375,119.15625 34.2030945,119.125 32.6142883,119.748047 C25.4794922,122.542969 21.4755859,121.990235 20.4082031,121.753906 C20.3652038,121.753906 20.3222961,121.754883 20.2792969,121.754883 C13.9267884,121.754883 8.5907898,117.466797 7.8349915,116.831055 C0.6796875,112.133789 -0.4316101,105.427735 0.5741883,102.053711 C1.0400086,100.492188 2.0195008,99.5615236 3.194275,99.5615236 C3.1972962,99.5615236 3.1991883,99.5615236 3.2020875,99.5615236 C4.1210938,99.5644533 5.3778993,100.117188 6.1416017,102.734375 C7.8690797,108.65918 14.6786806,110.806641 15.2948915,110.989258 C27.7236024,113.399414 30.6210939,106.705078 31.0272829,105.53711 C31.162079,90.4013674 39.9433901,82.7050784 49.2372744,74.5595705 C56.2958987,68.3730471 63.5946963,61.9755861 68.5878909,51.629883 C68.9433902,50.8945314 69.8300784,50.5849611 70.5625003,50.9414064 C71.2978824,51.2958986 71.6063846,52.1796876 71.2520145,52.9150392 C65.9960941,63.8027345 58.1278995,70.6982423 51.1854862,76.7832033 C41.9794925,84.8525392 34.0272831,91.8212892 33.9823917,105.772461 C33.9813846,105.898438 33.9647831,106.024414 33.932587,106.147461 C33.9032901,106.256836 30.8457035,117.055664 14.6650089,113.878906 C14.6288761,113.871094 14.5937809,113.863281 14.5585941,113.853516 C14.1923832,113.75293 5.5625003,111.307617 3.3027042,103.5625 C3.2958988,103.538086 3.2890934,103.513672 3.2812809,103.490235 C3.2080082,103.983399 3.18158,104.628907 3.2772831,105.413086 C3.4707035,107.021485 4.4687809,111.116211 9.5272831,114.405274 C9.5858769,114.442383 9.6405949,114.484375 9.6933903,114.529297 C9.7421879,114.571289 14.8603825,118.936524 20.5419926,118.794922 C20.6923832,118.775391 20.8486027,118.811524 20.9979863,118.855469 C21.0137029,118.858399 24.5185857,119.745117 31.5351872,116.994141 C34.7909855,115.719727 35.9423832,116.629883 37.2147831,118.053711 C38.1640934,119.117188 39.462891,120.573242 44.0370792,121.486328 C45.0731815,121.697266 45.9354862,121.480469 46.7479862,120.8125 C47.8036808,119.947266 48.6044925,118.466797 49.1806949,116.844727 C49.1347965,113.911133 49.6073917,111.419922 49.9452823,110.303711 C50.0946964,109.806641 50.557587,108.309571 51.9590152,108.501954 C52.3690799,108.5625 53.3212894,108.872071 53.3212894,110.430664 C53.3212894,111.708985 53.0517887,114.533204 52.1445011,117.325196 C52.2060856,118.900391 52.4491886,120.592774 53.0077823,122.201172 C53.8945011,124.75586 55.432587,126.564453 57.5800784,127.574219 C62.4667972,129.875 65.7900088,129.391602 66.8125003,127.967774 C67.5604861,126.924805 67.0722964,125.240235 65.566376,123.676758 C59.7479861,117.632813 61.4921878,107.174805 61.9003909,105.139649 C62.1688846,103.806641 61.5468753,99.0312504 58.9442752,97.6572269 C56.0448917,96.1230472 50.9228824,98.8828128 44.5253909,105.428711 C43.9560855,106.014649 43.019501,106.025391 42.4354861,105.453125 C41.8515933,104.881836 41.8407901,103.94629 42.4111026,103.362305 C50.0185855,95.5800785 56.0458987,92.7841801 60.3262027,95.0419926 C64.5292972,97.2636723 65.2304996,103.582032 64.8007816,105.72168 C64.5810856,106.813477 62.798798,116.538086 67.6972965,121.625977 C70.2392887,124.266602 70.8349918,127.432618 69.2147831,129.691407 C68.25,131.036133 66.344696,132.114258 63.5351868,132.114258 Z" id="Shape"></path>
                <path d="M73.6933899,45.8232422 C73.5409851,45.8232422 73.3876953,45.7998047 73.2353821,45.7509766 C72.4599915,45.4990235 72.0341797,44.6650391 72.2861023,43.8886719 C73.2479858,40.9228516 73.1063843,29.9765625 72.6854858,23.491211 C71.8096008,24.8652344 70.6942749,25.9033204 69.3866882,26.5351563 C67.3358764,27.5253907 65.0038757,27.4267579 62.6435852,26.2451172 C57.9198914,23.8837891 58.7733765,18.991211 59.9022827,16.6845703 C60.1483765,16.0888672 62.2929993,10.9736328 64.9512024,7.0283203 C66.6582031,4.4941406 68.5849915,3.1982422 70.6757813,3.1787109 C73.7392884,3.165039 75.7421875,5.9648437 75.8262024,6.0839843 L82.3573914,14.2890624 C82.8661805,14.9287108 82.7606812,15.8583983 82.1210938,16.3671874 C81.4823914,16.8740233 80.5517884,16.7685546 80.0438843,16.1308593 L73.4590149,7.8535155 C73.0751953,7.3222655 71.9403992,6.0976561 70.6913757,6.1357421 C69.3770141,6.1552733 68.1776733,7.5302733 67.4022827,8.680664 C64.8046875,12.5371093 62.6405945,17.8007812 62.6190796,17.8535156 C62.6054993,17.8876953 62.5897827,17.921875 62.5731812,17.9550781 C62.3770142,18.3564453 60.7226868,21.9794922 63.9647828,23.6005859 C65.4971009,24.3671875 66.8887025,24.4589843 68.1015931,23.8720703 C69.7187806,23.0908203 70.9726869,21.0976562 71.5390931,18.4033203 C71.6474915,17.8857422 71.873993,16.8095703 72.8866883,16.5175781 C73.444275,16.3554687 74.0448914,16.5214843 74.4560853,16.946289 C76.4472962,19.0039062 76.2070008,41.383789 75.0986024,44.8007812 C74.8954773,45.4257812 74.3153992,45.8232422 73.6933899,45.8232422 Z" id="Shape"></path>
                <path d="M83.6425781,133.084961 C70.5429992,133.084961 68.9716797,114.481445 68.3808899,107.477539 C68.0536804,103.608398 66.8642883,100.820312 65.7128906,98.1249999 C64.8808899,96.1757811 64.094696,94.3339843 63.7060852,92.2470702 C62.7401733,87.0703124 66.0663757,80.8974608 66.2090149,80.6367186 C66.6005859,79.9208983 67.4971008,79.6601561 68.2128906,80.0478514 C68.9296875,80.4384764 69.1942749,81.3359373 68.8046875,82.0527342 C68.7753906,82.1074217 65.8407898,87.5693358 66.6122742,91.7041014 C66.9423828,93.4726561 67.6659851,95.1679686 68.4325867,96.963867 C69.6171875,99.7392576 70.9599915,102.884765 71.3270874,107.229492 C72.227478,117.890625 74.4403992,130.127929 83.6425781,130.127929 C87.5438843,130.127929 90.0625,129.143554 90.5507812,127.425781 C91.094696,125.513672 89.2645874,122.618164 86.3847961,120.834961 C79.3340149,116.469726 75.7558899,90.2714842 78.4062805,80.9414061 C78.6298828,80.1562499 79.4491882,79.6953123 80.2323913,79.923828 C81.0185851,80.1464842 81.4736022,80.9638671 81.251007,81.7499999 C78.7567748,90.5302733 82.5351867,114.974609 87.9413757,118.321289 C92.0840149,120.885742 94.3262024,124.961914 93.3945007,128.235351 C92.8788757,130.045898 90.9267883,133.084961 83.6425781,133.084961 Z" id="Shape"></path>
                <path d="M81.1650085,104.69043 C80.4198913,104.69043 79.7782897,104.12793 79.6972961,103.370117 C79.609375,102.558594 80.1972961,101.829102 81.008789,101.742188 C94.7597961,100.259766 96.8183898,77.5605469 96.8378906,77.3310547 C96.9062805,76.5185547 97.6239929,75.9140625 98.4335937,75.9814453 C99.2479858,76.0488281 99.852478,76.7626953 99.7851867,77.5761719 C99.7637023,77.8310547 99.2401733,83.890625 96.7997741,90.25 C93.4570007,98.9609375 88.1063842,103.951172 81.3251952,104.681641 C81.2714844,104.6875 81.2187805,104.69043 81.1650085,104.69043 Z" id="Shape"></path>
                <path d="M111.266602,129.876953 C100.640595,129.876953 91.8456726,128.181641 91.8456726,107.353516 C91.8456726,101.933594 91.0722961,100.416016 90.8104858,100.057617 C90.7372741,100.104492 90.6522827,100.170898 90.594696,100.229492 C90.0370788,100.813477 89.1044921,100.848633 88.5137023,100.297852 C87.9218749,99.7480469 87.8729857,98.8339844 88.4130858,98.234375 C89.1308898,97.4375 90.4590148,96.6962891 91.8310851,97.2226562 C93.885681,98.0126953 94.8026732,101.136719 94.8026732,107.353516 C94.8026732,125.557617 101.321289,126.919922 111.266601,126.919922 C112.282196,126.919922 114.665985,126.798828 114.877014,125.674805 C115.181579,124.060547 112.557587,120.868164 111.417999,120.422852 C108.577087,119.313477 107.743194,117.446289 105.408172,109.944336 C102.418884,100.338867 100.615173,91.9648437 101.534179,82.321289 C102.02539,77.165039 100.485382,69.5214843 99.127014,62.7763671 L98.947296,61.8857421 C98.7861022,61.0859374 99.3046874,60.3066405 100.105499,60.1455077 C100.908172,59.9814452 101.684601,60.5029296 101.845672,61.3037108 L102.02539,62.1923827 C103.423797,69.1376952 105.010681,77.0107421 104.477478,82.6025389 C103.606384,91.7548827 105.347686,99.8007811 108.232391,109.065429 C110.577087,116.604492 111.122986,117.133789 112.494079,117.668945 C114.665985,118.516601 118.406311,122.915039 117.783203,126.221679 C117.468811,127.889648 116.083984,129.876953 111.266602,129.876953 Z" id="Shape"></path>
                <path d="M98.9989929,54.5732422 C98.3251953,54.5732422 97.7157898,54.109375 97.5585937,53.4248047 C97.3495788,52.5107422 97.2226867,51.9863281 97.2226867,51.9814453 C97.0292968,51.1875 97.5166015,50.3886719 98.3104858,50.1962891 C99.1054992,50.0078125 99.9022827,50.4902344 100.094696,51.2841797 C100.094696,51.2841797 100.226593,51.8222656 100.441376,52.7646485 C100.622986,53.5605469 100.126007,54.3535157 99.3300781,54.5361329 C99.2187805,54.5615234 99.1083984,54.5732422 98.9989929,54.5732422 Z" id="Shape"></path>
                <path d="M104.02829,43.2744141 C99.2558899,43.2744141 93.9853821,41.6123047 89.4608765,39.3388672 C88.7313843,38.9716797 88.4375,38.0830078 88.8036805,37.3535156 C89.1698914,36.6230468 90.0585938,36.3300781 90.7890931,36.696289 C93.3378907,37.977539 106.347687,44.0166015 112.138703,37.071289 C114.347687,34.4208984 114.390595,33.2792968 114.219696,32.8339843 C114.052674,32.4013671 113.178681,31.3242187 108.664093,30.6796874 C100.910187,29.571289 101.00589,24.5039062 101.046875,22.3398436 C101.051789,22.104492 101.05658,21.7871092 101.043885,21.6572264 C100.397492,19.7431639 100.99408,11.1660155 101.914093,9.9287108 C102.304688,9.4023436 102.927674,9.1611327 103.541992,9.3007811 C104.638703,9.5468749 104.871094,10.7128905 104.970673,11.2099608 C105.953095,16.1308592 108.739289,17.5693358 109.086884,17.7304686 C111.865174,18.5097655 113.264588,18.2998045 113.647492,17.8359374 C114.169892,17.2060546 113.689484,15.321289 113.158173,14.258789 C113.117188,14.1699218 111.833008,11.4609374 105.821289,5.9550781 C103.93158,4.2255859 102.298798,3.430664 101.223603,3.7167969 C100.180695,3.9960938 99.7245791,5.2988281 99.7206728,5.3115235 C99.7099916,5.3466797 99.6981813,5.3808594 99.6835939,5.4140626 L96.75,12.7480469 C96.5956726,13.1357422 96.2831726,13.4404297 95.8925781,13.584961 C95.5020141,13.7314454 95.0653991,13.7050782 94.695282,13.5107422 C88.2020874,10.1357422 80.9354859,14.7841797 80.8642883,14.8320313 C80.1815796,15.2802735 79.2645874,15.0859375 78.8183899,14.4013672 C78.3710938,13.7177734 78.5644837,12.8017578 79.2479858,12.3554688 C79.5820007,12.1376954 87.0400085,7.3691407 94.5762024,10.2226563 L96.9208984,4.3603516 C97.2782898,3.2910157 98.4022827,1.4111328 100.460876,0.8603516 C102.604492,0.2900391 105.081085,1.2685547 107.81839,3.7744141 C114.320282,9.7294922 115.703064,12.6972657 115.839783,13.0166016 C116.024414,13.3789063 117.908203,17.3291016 115.923767,19.7226563 C114.557587,21.3720704 112.030273,21.6425782 108.194275,20.5507813 C108.155273,20.5390625 108.115173,20.5263672 108.077087,20.5117188 C107.941376,20.4609376 105.605499,19.5400391 103.792999,16.4580079 C103.6875,18.2460938 103.660187,19.959961 103.779297,20.5507813 C104.02829,21.0898438 104.016601,21.6992188 104.002899,22.3964844 C103.964783,24.453125 103.915008,27.0136719 109.082001,27.7519532 C113.666992,28.4072266 116.176758,29.685547 116.979492,31.7734376 C117.9375,34.2646485 116.109375,36.9248048 114.410187,38.9638673 C111.832001,42.0576172 108.112274,43.2744141 104.02829,43.2744141 Z" id="Shape"></path>
                <path d="M112.449188,39.5283203 C111.191376,39.5283203 110.400391,39.2890625 109.825195,38.7578125 C109.261688,38.2382813 109.110382,37.5996094 109.067383,37.0791016 C108.597687,37.4189454 107.997101,37.6884766 107.259796,37.5654297 C106.009796,37.3554688 105.40329,36.1425781 105.204101,35.7441406 C103.537079,32.4101562 107.102478,29.3857422 109.472687,28.125 C110.189484,27.7392578 111.087891,28.0136719 111.47168,28.7353516 C111.855499,29.4550782 111.583008,30.3496094 110.863281,30.734375 C110.13089,31.1279297 107.396484,32.9365234 107.788086,34.2675781 C108.24408,33.8232422 108.920898,33.2255859 109.851593,33.3027343 C110.268585,33.3388671 110.870087,33.5273437 111.368195,34.2207031 C111.993195,35.0917969 112.002014,36.0058593 112.006775,36.5527343 C112.226593,36.5732421 112.589783,36.5849609 113.168884,36.5429687 C113.972687,36.4804687 114.691376,37.0966796 114.748993,37.9121093 C114.807587,38.7265624 114.194275,39.4335937 113.379883,39.4921874 C113.043884,39.5166016 112.734375,39.5283203 112.449188,39.5283203 Z" id="Shape"></path>
                <path d="M107.051788,52.1699219 C106.898376,52.1699219 106.752014,52.1621094 106.614288,52.1494141 C102.816376,51.7949219 99.4472961,47.1220703 96.6513977,42.5976563 C96.2226868,41.9023438 96.4375,40.9921875 97.1317749,40.5625001 C97.8270874,40.1337892 98.7362976,40.3496095 99.1669922,41.0429689 C100.372986,42.9960939 104.045898,48.9404298 106.888702,49.2060548 C107.289093,49.2441407 107.904297,49.194336 108.675781,48.3476564 C109.71579,47.208008 110.199188,46.1337892 110.110382,45.1562502 C109.993195,43.8632814 108.895477,43.0146486 108.884796,43.0058596 C108.239288,42.5156252 108.103485,41.5917971 108.587891,40.9414065 C109.071289,40.2910159 109.984375,40.1484377 110.639588,40.6259768 C110.859375,40.786133 112.791992,42.2666018 113.049774,44.8349612 C113.236298,46.6914065 112.5,48.5439456 110.859375,50.3417971 C109.520477,51.8085938 108.113281,52.1699219 107.051788,52.1699219 Z" id="Shape"></path>
                <path d="M107.259796,47.734375 C106.565399,47.734375 105.945282,47.2421875 105.809601,46.5341797 C105.40329,44.4160156 102.907196,43.1650391 102.881775,43.1533203 C102.145477,42.8007812 101.834992,41.9179687 102.188477,41.1816406 C102.540985,40.4453125 103.425781,40.1367187 104.160187,40.4873047 C104.317383,40.5625 108.022492,42.3759766 108.713898,45.9775391 C108.867188,46.7792969 108.342773,47.553711 107.540008,47.7080079 C107.446289,47.7255859 107.352478,47.734375 107.259796,47.734375 Z" id="Shape"></path>
                <path d="M103.88089,50.8359375 C93.7001953,50.8359375 87.9442749,45.3300781 87.7041016,45.0957031 C87.1190796,44.5253906 87.1083985,43.5898437 87.6786805,43.0048828 C88.248993,42.4238281 89.1815797,42.4091797 89.7666016,42.977539 C89.8446961,43.0527343 94.9823914,47.8789062 103.881775,47.8789062 C103.885681,47.8789062 103.887695,47.8789062 103.891602,47.8789062 L103.892578,47.8789062 C104.708008,47.8789062 105.370087,48.540039 105.370087,49.3564453 C105.371094,50.1728515 104.709015,50.8359375 103.892578,50.8359375 C103.889587,50.8359375 103.885681,50.8359375 103.88089,50.8359375 Z" id="Shape"></path>
                <path d="M100.290985,62.2539062 C99.9481811,62.2539062 99.6063843,62.1328124 99.3270874,61.8847656 C98.8300781,61.4414062 98.6034851,60.6210937 98.9003906,60.0234375 C99.1112976,59.6005859 99.5546875,59.3183594 100.027283,59.2363281 C100.027283,58.9951172 100.002899,58.6269531 99.9101868,58.0859375 C99.5565796,56.0175781 99.2041016,55.0234375 98.9921875,54.5703125 C98.8642883,54.5712891 98.7353821,54.5712891 98.6103821,54.5712891 C80.3222962,54.5722657 73.3017883,46.850586 71.9921875,45.1699219 C71.8935852,45.475586 71.7812805,45.9091797 71.6737976,46.5146485 C71.2255859,49.0400391 70.8241882,50.2089844 70.601593,50.8076173 C70.9590149,51.4951173 70.7236023,52.3505861 70.0517883,52.7558595 C69.352478,53.1777345 68.4433899,52.951172 68.0224914,52.2519533 C67.5106811,51.4013674 67.3974914,50.9199221 67.7802734,49.9082033 C67.9560852,49.4443361 68.3222961,48.4775392 68.7626953,45.9970705 C69.0849914,44.1855471 69.6776733,42.0634767 71.4276733,41.7324221 C72.672882,41.496094 73.7050781,42.3701174 74.2528991,43.2666018 C74.2724914,43.2900393 80.2411803,51.6074221 98.5937804,51.614258 C98.9580077,51.4599611 99.4042968,51.3974611 99.892578,51.5351564 C101.307587,51.9365236 102.157196,53.6894533 102.824188,57.5859376 C103.037079,58.8242188 103.200195,60.584961 102.171875,61.5859376 C101.872986,61.8759767 101.391602,62.1835938 100.68158,62.2001954 C100.55368,62.2353516 100.422882,62.2539062 100.290985,62.2539062 Z" id="Shape"></path>
                <path d="M99,62.2597656 C98.9931946,62.2597656 98.9853821,62.2597656 98.9784851,62.2597656 C78.4628906,61.9599609 69.5302734,53.0449218 69.1601868,52.665039 C68.5897827,52.0810546 68.601593,51.1445312 69.1854859,50.5742187 C69.7685853,50.0068359 70.7020875,50.0166015 71.2733765,50.5966796 C71.3778992,50.7021484 79.8495789,59.0234374 99.0214844,59.3027343 C99.8378906,59.3144531 100.490173,59.9863281 100.478485,60.8027343 C100.46579,61.6123047 99.8065796,62.2597656 99,62.2597656 Z" id="Shape"></path>
                <path d="M89.070282,57.6855469 C88.9481812,57.6855469 88.8231812,57.6699219 88.6981812,57.6376953 C77.2440796,54.6621094 72.9003907,51.4267578 72.7207032,51.2900391 C72.0702821,50.7958985 71.944275,49.8691407 72.4384766,49.21875 C72.9315796,48.5693359 73.8563843,48.4453125 74.5058899,48.9326172 C74.5840149,48.9902344 78.7147827,51.9892578 89.4413757,54.7763672 C90.2313842,54.9814453 90.7060852,55.788086 90.501007,56.5791016 C90.3270874,57.2441406 89.7284851,57.6855469 89.070282,57.6855469 Z" id="Shape"></path>
                <path d="M95.6650085,58.1953125 L94.1894836,58.1953125 C93.3729858,58.1953125 92.7108764,57.5332031 92.7108764,56.7167969 C92.7108764,55.9003907 93.3729858,55.2382813 94.1894836,55.2382813 L95.6650085,55.2382813 C96.4813842,55.2382813 97.1435852,55.9003907 97.1435852,56.7167969 C97.1435852,57.5332031 96.4813843,58.1953125 95.6650085,58.1953125 Z" id="Shape"></path>
                <path d="M65.0058899,21.7236328 C64.8183899,21.7236328 64.6260071,21.6875 64.4403992,21.6113281 C63.686493,21.2988281 63.3280945,20.4335937 63.6405945,19.6796875 L66.4892883,12.8017578 C66.8017883,12.046875 67.6669922,11.6884766 68.421875,12.0009766 C69.1757812,12.3134766 69.5332031,13.178711 69.2207031,13.9326172 L66.3729858,20.8105469 C66.1366882,21.3798828 65.5858765,21.7236328 65.0058899,21.7236328 Z" id="Shape"></path>
                <path d="M77.3183899,18.3759766 C76.8270874,18.3759766 76.3457031,18.1308594 76.0644837,17.6835938 L73.3642884,13.3837891 C72.9296876,12.6923829 73.1376954,11.7802735 73.8291016,11.3457032 C74.5214844,10.9111329 75.4335938,11.1191407 75.8671875,11.8115235 L78.5683899,16.1113282 C79.0028992,16.8027344 78.7948914,17.7148438 78.1034851,18.1494141 C77.859375,18.3027344 77.5868835,18.3759766 77.3183899,18.3759766 Z" id="Shape"></path>
                <path d="M111.600586,17.4228516 C111.17868,17.4228516 110.759796,17.2431641 110.466797,16.8945313 L106.128876,11.7265625 C105.604492,11.1015625 105.685486,10.1689453 106.311493,9.6435547 C106.935486,9.1181641 107.86908,9.2001953 108.394501,9.8261719 L112.732391,14.9941407 C113.256775,15.6191407 113.175781,16.5517579 112.549774,17.0771485 C112.273376,17.3095703 111.935486,17.4228516 111.600586,17.4228516 Z" id="Shape"></path>
                <path d="M100.242188,10.2548828 C100.095673,10.2548828 99.9472961,10.2333984 99.7987976,10.1865234 C99.0195007,9.9423828 98.5868835,9.1123046 98.8310852,8.3330078 C99.382782,6.5771484 100.441376,5.8955078 101.232391,5.6328125 C103.270477,4.9570313 105.383789,6.4189453 105.61908,6.5878906 C106.281281,7.0654297 106.430695,7.9902344 105.953095,8.6523437 C105.476593,9.3124999 104.555695,9.4609375 103.894501,8.9902343 C103.449188,8.6767577 102.577087,8.2998046 102.162079,8.4394531 C101.904297,8.5273437 101.732391,8.9658203 101.652283,9.2197265 C101.454102,9.8505859 100.871094,10.2548828 100.242188,10.2548828 Z" id="Shape"></path>
                <path d="M83.5448914,27.6142578 C83.1308899,27.6142578 82.7196961,27.4414062 82.4276734,27.1044922 C81.8925782,26.4882813 81.959015,25.5546875 82.5751954,25.0195313 C86.7382813,21.4062501 90.9628907,23.3232422 91.1395875,23.4082032 C91.8788758,23.7548829 92.1972962,24.6347657 91.849579,25.3740235 C91.5038759,26.1093751 90.63089,26.428711 89.8964845,26.0898438 C89.7645875,26.0322266 87.1767885,24.9394532 84.5137025,27.2519532 C84.234375,27.4951172 83.8887024,27.6142578 83.5448914,27.6142578 Z" id="Shape"></path>
                <path d="M96.9647827,23.5761719 C96.5282898,23.5761719 96.0966797,23.3876953 95.8065796,23.022461 C95.3046875,22.3896485 95.3925781,21.4814454 96.0155945,20.9687501 C96.1395874,20.8671876 99.0995789,18.4970704 103.197296,20.6972657 C103.915985,21.0830079 104.186493,21.9794923 103.800781,22.6992188 C103.415009,23.4179688 102.518585,23.6884766 101.798798,23.3027344 C99.529297,22.084961 98.0361024,23.1435547 97.873993,23.2685547 C97.6044922,23.4755859 97.2831726,23.5761719 96.9647827,23.5761719 Z" id="Shape"></path>
                <path d="M118.138672,127.876953 C117.693359,127.876953 117.252869,127.676758 116.961914,127.294922 C115.424805,125.279297 114.408173,125.512695 114.400391,125.519531 C113.71579,125.962891 112.798798,125.764649 112.357391,125.078125 C111.915009,124.391602 112.112274,123.477539 112.798798,123.035156 C112.924774,122.953125 115.944275,121.082031 119.313477,125.501953 C119.808594,126.151367 119.683594,127.079102 119.03418,127.574219 C118.766602,127.77832 118.451172,127.876953 118.138672,127.876953 Z" id="Shape"></path>
                <path d="M94.1894836,129.876953 C93.7831726,129.876953 93.3788757,129.710938 93.0878906,129.383789 C91.9062805,128.064453 89.8437805,127.683594 89.8231811,127.680664 C89.0185852,127.543945 88.476593,126.78125 88.6122741,125.975586 C88.7479858,125.169922 89.5106811,124.629883 90.3163757,124.764648 C90.4413757,124.786133 93.4091797,125.30957 95.2909851,127.413086 C95.8358765,128.021484 95.7831726,128.956055 95.1757812,129.5 C94.8935852,129.75293 94.5409851,129.876953 94.1894836,129.876953 Z" id="Shape"></path>
                <path d="M91.0683899,133.433594 C90.4081726,133.433594 89.8065796,132.988281 89.6366882,132.319336 C89.4560852,132.011719 88.1659851,131.228516 87.0058899,130.775391 C86.2460938,130.478516 85.8700867,129.621094 86.1679993,128.860352 C86.4647827,128.099609 87.3192749,127.719727 88.0820008,128.021484 C89.2548829,128.479492 92.0331727,129.744141 92.5020142,131.59082 C92.7041016,132.381836 92.225586,133.186523 91.4335938,133.387695 C91.3125,133.418945 91.1894836,133.433594 91.0683899,133.433594 Z" id="Shape"></path>
                <path d="M68.8554993,131.433594 C68.4716797,131.433594 68.0878907,131.285156 67.7987976,130.989258 C67.5195007,130.704102 67.3798828,130.335938 67.3770142,129.966797 C66.9745789,129.604492 66.1395874,129.03125 65.3690796,128.602539 C64.6562805,128.205078 64.3993836,127.304688 64.796875,126.59082 C65.1942749,125.87793 66.0937805,125.619141 66.8075867,126.018555 C70.2050782,127.911133 70.3632813,129.092774 70.4150086,129.480469 C70.4921876,130.051758 70.2997742,130.610352 69.8895875,131.011719 C69.601593,131.292969 69.2284851,131.433594 68.8554993,131.433594 Z" id="Shape"></path>
                <path d="M64.4394836,133.101562 C63.8974914,133.101562 63.3739929,132.801758 63.1151733,132.282227 C62.9384765,131.925781 62.9179992,131.533203 63.0282898,131.181641 C62.7558899,130.713867 62.1366882,129.912109 61.5351868,129.265625 C60.9794922,128.668945 61.0116883,127.733399 61.609375,127.176758 C62.2060852,126.620117 63.1405945,126.654297 63.6981812,127.249023 C66.350586,130.091797 66.1387024,131.264648 66.0683899,131.650391 C65.9657898,132.217773 65.6122742,132.69043 65.0976868,132.946289 C64.8856812,133.051758 64.6611023,133.101562 64.4394836,133.101562 Z" id="Shape"></path>
                <path d="M86.0292969,134.663086 C85.5692749,134.663086 85.1151734,134.449219 84.8270874,134.045898 C83.9228821,132.786133 82.7304993,131.363281 82.7187805,131.349609 C82.1933899,130.724609 82.2733764,129.791992 82.8993835,129.266602 C83.5233764,128.743164 84.4560852,128.822266 84.9813842,129.447266 C85.0331725,129.508789 86.258789,130.96875 87.2294921,132.323242 C87.7060851,132.986328 87.5536803,133.910156 86.8895873,134.385742 C86.6288757,134.573242 86.3280945,134.663086 86.0292969,134.663086 Z" id="Shape"></path>
                <path d="M69.8036804,11.3876953 C69.5770874,11.3876953 69.3476867,11.3359375 69.1308899,11.2255859 C68.4042969,10.8535156 68.1171875,9.9628906 68.4882813,9.2363281 C69.2147828,7.8164062 70.1591797,7.4404297 70.8241883,7.375 C72.1776734,7.2460938 73.0722962,8.2734375 73.2362977,8.4824219 C73.7431947,9.1230469 73.6347962,10.0527344 72.9940797,10.5585938 C72.4394838,10.9970704 71.6659852,10.975586 71.1405946,10.5439454 C71.1347963,10.5566407 71.1278993,10.569336 71.1210939,10.5820313 C70.859375,11.09375 70.3407898,11.3876953 69.8036804,11.3876953 Z" id="Shape"></path>
                <path d="M41.5497742,92.8330078 C41.3046875,92.8330078 41.0565796,92.7734375 40.8270874,92.6464844 C40.102478,92.2470703 39.8378906,91.334961 40.2372742,90.609375 C44.2948914,83.2441406 56.5282898,74.2128906 57.046875,73.8320312 C57.7147827,73.3427734 58.6532898,73.4863281 59.1435852,74.1533203 C59.6337891,74.8212891 59.4901733,75.7597656 58.8222961,76.25 C58.7012023,76.3398438 46.6034851,85.2714844 42.8652038,92.0566406 C42.5917969,92.5527344 42.0791016,92.8330078 41.5497742,92.8330078 Z" id="Shape"></path>
                <path d="M37,101.686523 C36.8153992,101.686523 36.6278992,101.652344 36.4462891,101.580078 C35.6767884,101.274414 35.3007813,100.402344 35.6063843,99.6328125 L37.3368836,95.2783203 C37.6435853,94.5087891 38.5137024,94.1328125 39.2851868,94.4384765 C40.0546875,94.7441406 40.4306946,95.6162109 40.125,96.3857421 L38.3945007,100.740234 C38.1601868,101.328125 37.5966797,101.686523 37,101.686523 Z" id="Shape"></path>
            </g>
        </g>
    </g>
</svg>
